<?xml version="1.0" encoding="UTF-8" standalone="no"?>
<!-- Generator: Adobe Illustrator 28.3.0, SVG Export Plug-In . SVG Version: 6.00 Build 0)  -->

<svg
   version="1.1"
   id="Layer_1"
   x="0px"
   y="0px"
   viewBox="0 0 280 280"
   xml:space="preserve"
   sodipodi:docname="piece-dragon.svg"
   width="280"
   height="280"
   inkscape:export-filename="piece-dragon.png"
   inkscape:export-xdpi="51.42857"
   inkscape:export-ydpi="51.42857"
   inkscape:version="1.4 (1:1.4+202410161351+e7c3feb100)"
   xmlns:inkscape="http://www.inkscape.org/namespaces/inkscape"
   xmlns:sodipodi="http://sodipodi.sourceforge.net/DTD/sodipodi-0.dtd"
   xmlns="http://www.w3.org/2000/svg"
   xmlns:svg="http://www.w3.org/2000/svg"><defs
   id="defs5"><clipPath
     clipPathUnits="userSpaceOnUse"
     id="clipPath5"><path
       style="fill:#000000"
       d="m -424.36431,1184.6019 c -31.61277,-1.0249 -76.51624,-5.0609 -92.32687,-8.2984 -22.06038,-4.5174 -27.41254,-6.7145 -39.31352,-16.1384 -32.95567,-26.0964 -51.20439,-63.0901 -51.14808,-103.6873 0.0105,-7.5576 0.2299,-14.0826 0.48758,-14.5 0.25768,-0.4174 1.20054,-5.0017 2.09524,-10.1874 2.65838,-15.408 9.19018,-32.44044 18.05156,-47.07147 4.73311,-7.81485 3.8611,-6.63568 12.34054,-16.68734 3.7987,-4.50304 9.10418,-10.06534 11.78995,-12.36067 2.68576,-2.29534 5.24683,-4.50965 5.69125,-4.9207 0.44443,-0.41105 -3.04307,-7.76367 -7.75,-16.33916 -4.70692,-8.57548 -8.55804,-15.82507 -8.55804,-16.11019 0,-0.28512 -2.63342,-6.0452 -5.85204,-12.80017 -3.21862,-6.75497 -6.42726,-14.08177 -7.13032,-16.28177 -0.70306,-2.2 -1.61728,-4.45 -2.03162,-5 -1.31039,-1.73945 -8.77724,-24.5751 -11.60787,-35.5 -2.3303,-8.99388 -2.77664,-13.01019 -3.11162,-28 -0.4055,-18.14459 0.53335,-27.73402 4.55253,-46.5 1.83547,-8.57001 6.98765,-25.57133 9.69747,-32 8.68346,-20.60031 19.27374,-39.21557 30.00214,-52.7368 6.95476,-8.76524 8.16426,-10.1641 15.98133,-18.4834 13.33744,-14.19434 31.7429,-28.81705 49,-38.92936 7.44384,-4.36194 25.67204,-13.23095 31.5,-15.32646 1.925,-0.69216 4.85,-1.84154 6.5,-2.55418 1.65,-0.71264 5.7,-2.05268 9,-2.97787 3.3,-0.92519 7.98953,-2.33517 10.42119,-3.1333 4.01521,-1.31788 16.91226,-3.79083 34.07881,-6.53443 8.41123,-1.3443 44.58877,-1.3443 53,0 17.27062,2.76024 30.0676,5.21912 34.07881,6.54811 2.43166,0.80564 7.79619,2.44841 11.92119,3.6506 4.125,1.20218 7.95,2.53019 8.5,2.95112 0.55,0.42093 2.8,1.33162 5,2.02376 4.934,1.55228 29.41355,13.62988 31.57874,15.58017 0.86831,0.78212 2.0088,1.42204 2.53444,1.42204 1.22347,0 15.77737,9.99436 16.22015,11.1386 0.18334,0.47377 0.80338,0.8614 1.37787,0.8614 1.71167,0 17.63673,13.74709 27.17161,23.45552 10.17113,10.35626 21.94582,25.00992 28.89835,35.96416 10.26651,16.17563 22.45896,43.52421 25.67027,57.58032 0.6911,3.025 1.88048,7.41565 2.64307,9.757 6.24186,19.1642 6.16757,80.63221 -0.12901,106.743 -0.79579,3.3 -2.12119,9.2687 -2.94533,13.26377 -1.49913,7.2671 -8.18535,28.85146 -9.52121,30.73623 -0.38982,0.55 -1.18893,2.42888 -1.77579,4.17529 -1.05315,3.13398 -1.01925,3.18339 2.6049,3.79712 4.32786,0.7329 12.73951,4.99408 16.83497,8.52827 9.60577,8.28933 19.21686,31.91892 26.40012,64.90669 4.34251,19.9421 6.12751,46.978 3.93451,59.5926 -1.50458,8.6548 -4.83263,21.5744 -5.91566,22.9649 -0.44342,0.5693 -1.12195,2.3527 -1.50784,3.9631 -0.38589,1.6104 -1.97442,5.6604 -3.53007,9 -1.55565,3.3396 -3.54292,7.647 -4.41617,9.572 -0.87324,1.925 -2.15926,4.3866 -2.85782,5.4702 -4.67285,7.2486 -10.16058,15.2592 -11.32385,16.5298 -9.87679,10.7884 -19.53607,19.3433 -29.35654,26 -2.83988,1.925 -6.38434,4.4276 -7.87657,5.5614 -7.85468,5.9676 -13.81584,8.2978 -33.21314,12.9826 -5.84174,1.4109 -23.49577,3.6676 -46.5,5.9441 -31.60843,3.1279 -103.86233,4.2104 -159.85961,2.3949 z"
       id="path6"
       sodipodi:nodetypes="ssssssssssssssssssssssssssssssssssssssssssssssssssssssscsss" /></clipPath></defs><sodipodi:namedview
   id="namedview5"
   pagecolor="#ffffff"
   bordercolor="#000000"
   borderopacity="0.25"
   inkscape:showpageshadow="2"
   inkscape:pageopacity="0.0"
   inkscape:pagecheckerboard="0"
   inkscape:deskcolor="#d1d1d1"
   inkscape:zoom="0.82099998"
   inkscape:cx="180.87698"
   inkscape:cy="285.01828"
   inkscape:window-width="1920"
   inkscape:window-height="1128"
   inkscape:window-x="0"
   inkscape:window-y="0"
   inkscape:window-maximized="1"
   inkscape:current-layer="Layer_1" />
<style
   type="text/css"
   id="style1">
	.st0{clip-path:url(#SVGID_00000046323463101320189760000003689242643150075802_);}
	.st1{fill:#FA6863;}
</style>

<g
   id="g10"
   transform="translate(-195.54127,-347.11094)"><path
     style="fill:#f9f9f9"
     d="m 370.1731,602.1608 c 11.31598,-0.72843 11.27872,-0.72449 20.92132,-2.21146 10.02197,-1.54548 12.01235,-2.34452 19.46687,-7.815 10.34051,-7.58835 15.09841,-14.57948 19.50629,-28.66198 0.90091,-2.87828 1.00145,-3.99053 0.98511,-10.8984 -0.0193,-8.14845 -0.65845,-12.73901 -2.97728,-21.38268 -4.57459,-17.05227 -8.30599,-21.62202 -14.46563,-17.7157 -2.48513,1.57603 -3.42103,2.46828 -6.04392,5.7621 -2.33796,2.93599 -2.76344,3.25012 -4.4679,3.29858 -4.64612,0.1321 -6.74659,-4.85585 -3.38228,-8.03184 2.39799,-2.26377 6.34929,-7.79157 8.44901,-11.82005 6.24224,-11.97618 9.64537,-28.157 9.64215,-45.84538 -0.001,-7.30586 -0.17523,-9.96878 -0.93499,-14.31751 -0.91263,-5.22374 -2.9216,-12.3958 -4.78865,-17.09553 -6.81077,-17.1441 -19.83881,-32.18232 -36.35405,-41.96338 -8.6153,-5.10236 -16.7875,-8.24773 -27.78024,-10.69223 -6.16957,-1.37196 -6.25035,-1.37809 -18.164,-1.3791 -11.81924,-10e-4 -12.04345,0.0156 -18.17425,1.34277 -21.84121,4.72826 -39.22526,15.45039 -52.51629,32.391 -11.89253,15.15808 -18.19065,34.07026 -17.43527,52.35506 0.20889,5.05636 0.45638,6.53416 2.00169,11.95224 0.96984,3.40037 1.91971,6.38141 2.11083,6.62452 0.19112,0.24311 0.58765,1.21132 0.88117,2.15157 1.26322,4.04648 10.42821,23.66552 11.9792,25.6433 0.59116,0.75382 3.00147,5.06896 3.89108,6.96614 0.88666,1.89089 0.82523,3.53472 -0.17887,4.78703 -0.28272,0.3526 -1.63221,1.39421 -2.99887,2.31469 -3.01353,2.02967 -7.30945,6.20053 -9.57332,9.29462 -4.09509,5.59687 -6.34875,10.39804 -8.5188,18.14833 -1.07939,3.85502 -1.18317,4.86617 -1.20067,11.69903 -0.0169,6.58641 0.10357,7.93849 1.00893,11.32579 1.42125,5.31742 4.89319,12.65698 7.58153,16.02705 4.31539,5.40975 6.81782,7.89837 11.32933,11.2668 2.37214,1.77112 7.2444,3.10882 15.63107,4.29159 10.91123,1.53881 24.80655,2.5543 40.93247,2.9914 11.14618,0.30212 44.14078,-0.19207 53.63723,-0.80337 z M 310.44559,499.06951 c 0.41136,-0.1075 1.0845,-0.1075 1.49586,0 0.41136,0.1075 0.0748,0.19546 -0.74793,0.19546 -0.82272,0 -1.15929,-0.088 -0.74793,-0.19546 z m 6.22384,0.003 c 0.30852,-0.12346 0.67715,-0.10828 0.81916,0.0337 0.14202,0.14201 -0.11041,0.24303 -0.56094,0.22447 -0.49789,-0.0205 -0.59916,-0.12178 -0.25822,-0.25821 z m -9.63481,-0.43161 c 0.41583,-0.10836 0.99281,-0.10124 1.28216,0.0158 0.28936,0.11707 -0.0509,0.20573 -0.75606,0.19702 -0.70519,-0.009 -0.94194,-0.10449 -0.5261,-0.21285 z m 12.39426,0 c 0.41583,-0.10836 0.99281,-0.10124 1.28216,0.0158 0.28936,0.11707 -0.0509,0.20573 -0.75606,0.19702 -0.70519,-0.009 -0.94194,-0.10449 -0.5261,-0.21285 z m -16.99682,-0.5586 c -1.15169,-0.29306 -1.17343,-0.32707 -0.21369,-0.33422 0.58766,-0.004 1.54928,0.14601 2.13694,0.33422 0.83725,0.26813 0.88349,0.34046 0.21369,0.33422 -0.47012,-0.004 -1.43175,-0.15478 -2.13694,-0.33422 z m 20.38359,0.007 c 0.63312,-0.19097 2.17172,-0.45548 3.41911,-0.58781 l 2.26798,-0.2406 -2.56432,0.6059 c -2.80821,0.66353 -5.13433,0.82928 -3.12277,0.22251 z m -22.81436,-0.72604 c 0.30852,-0.12346 0.67714,-0.10827 0.81916,0.0337 0.14202,0.14202 -0.11041,0.24303 -0.56095,0.22448 -0.49788,-0.0205 -0.59915,-0.12178 -0.25821,-0.25822 z m -5.12866,-1.28216 c 0.30852,-0.12346 0.67714,-0.10828 0.81916,0.0337 0.14202,0.14202 -0.11041,0.24303 -0.56094,0.22447 -0.49789,-0.0205 -0.59916,-0.12178 -0.25822,-0.25821 z m -3.25883,-0.85478 c -1.01372,-0.35852 -1.76755,-0.72743 -1.67519,-0.81979 0.195,-0.19499 4.15938,1.1066 4.15938,1.36562 0,0.26762 -0.48631,0.16077 -2.48419,-0.54583 z m 44.15455,0.29196 c 0.47012,-0.20202 1.23942,-0.36166 1.70955,-0.35475 0.68715,0.0101 0.64524,0.0797 -0.2137,0.35475 -1.46131,0.46799 -2.58494,0.46799 -1.49585,0 z m 3.12527,-0.71935 c 0.30852,-0.12346 0.67715,-0.10827 0.81916,0.0337 0.14202,0.14202 -0.11041,0.24303 -0.56094,0.22448 -0.49789,-0.0205 -0.59916,-0.12178 -0.25822,-0.25822 z m 4.70127,-1.28216 c 0.30852,-0.12346 0.67715,-0.10828 0.81916,0.0337 0.14202,0.14202 -0.1104,0.24303 -0.56094,0.22447 -0.49789,-0.0205 -0.59916,-0.12178 -0.25822,-0.25821 z m -58.15151,-0.80793 c -1.65708,-0.89898 -1.4694,-1.20922 0.21369,-0.35325 1.61105,0.81934 1.89618,1.03169 1.3534,1.00798 -0.21548,-0.009 -0.92067,-0.30404 -1.56709,-0.65473 z m 59.9412,0.24446 c 0.3526,-0.22787 0.92957,-0.4143 1.28217,-0.4143 0.56985,0 0.56985,0.046 0,0.4143 -0.3526,0.22786 -0.92957,0.4143 -1.28217,0.4143 -0.56985,0 -0.56985,-0.046 0,-0.4143 z m 7.90668,-2.75664 c 1.17532,-0.57057 2.32927,-1.0407 2.56433,-1.04474 0.64458,-0.0111 -2.40789,1.51735 -3.6328,1.819 -0.58766,0.14472 -0.10684,-0.2037 1.06847,-0.77426 z m -72.50181,-0.26045 -1.00897,-0.88014 1.17532,0.7156 c 0.64643,0.39358 1.17532,0.78965 1.17532,0.88015 0,0.33372 -0.35708,0.14326 -1.34167,-0.71561 z m -2.26597,-1.48408 c -0.45629,-0.34512 -0.62408,-0.62749 -0.37287,-0.62749 0.2512,0 0.69616,0.28849 0.98879,0.64108 0.66553,0.80192 0.45617,0.7973 -0.61592,-0.0136 z m 79.68275,-0.36807 c 0,-0.0924 0.29848,-0.28251 0.66328,-0.42249 0.38034,-0.14596 0.55189,-0.0743 0.40216,0.16796 -0.25098,0.40611 -1.06544,0.60068 -1.06544,0.25453 z m -82.09089,-1.86213 -1.03613,-1.17532 1.17532,1.03613 c 1.09851,0.96841 1.37131,1.31451 1.03612,1.31451 -0.0766,0 -0.60545,-0.52889 -1.17531,-1.17532 z m 85.93738,-0.2764 c 0,-0.1098 0.62506,-0.63794 1.38902,-1.17366 0.98552,-0.69108 1.21299,-0.75483 0.78307,-0.21946 -0.61163,0.76167 -2.17209,1.7625 -2.17209,1.39312 z m -87.99907,-2.09367 c -0.54061,-0.90021 -0.53151,-0.90932 0.20443,-0.20443 0.42364,0.40576 0.67826,0.82975 0.56582,0.94218 -0.11244,0.11244 -0.45905,-0.21955 -0.77025,-0.73775 z m 92.05926,-1.15588 c 0.42546,-0.47013 0.86973,-0.85478 0.98726,-0.85478 0.11753,0 -0.13441,0.38465 -0.55987,0.85478 -0.42546,0.47013 -0.86972,0.85478 -0.98726,0.85478 -0.11753,0 0.13441,-0.38465 0.55987,-0.85478 z m -94.3993,-2.98264 c -0.38202,-0.95476 -0.68831,-2.06861 -0.68063,-2.47521 0.008,-0.4066 0.37835,0.31645 0.82372,1.60679 0.95467,2.76586 0.85592,3.36519 -0.14309,0.86842 z m 96.78991,-0.009 c 1.23835,-1.91881 1.24258,-1.9238 1.24007,-1.46024 -10e-4,0.21547 -0.49787,0.96874 -1.10379,1.67394 l -1.10167,1.28216 z m -97.77945,-5.76974 c 0.002,-1.41038 0.0822,-1.93583 0.17731,-1.16766 0.0951,0.76816 0.0932,1.92211 -0.004,2.56433 -0.0975,0.64221 -0.17535,0.0137 -0.17295,-1.39667 z m 99.99866,-0.85478 c 0.003,-1.17531 0.0862,-1.6054 0.18444,-0.95574 0.0982,0.64965 0.0956,1.61128 -0.006,2.13694 -0.10145,0.52566 -0.18182,-0.006 -0.17861,-1.1812 z m -83.21873,-0.0305 c -0.98202,-0.98202 -0.83765,-2.90183 0.29001,-3.85658 0.96066,-0.81335 0.96087,-0.81327 0.2137,0.0743 -0.92477,1.09849 -0.95222,2.26252 -0.0826,3.50405 0.77234,1.10268 0.55014,1.24951 -0.4211,0.27827 z m 4.8043,0.37965 c 0.30852,-0.12346 0.67715,-0.10828 0.81916,0.0337 0.14202,0.14202 -0.11041,0.24303 -0.56094,0.22447 -0.49789,-0.0205 -0.59916,-0.12178 -0.25822,-0.25821 z m 2.13694,-0.42739 c 0.30852,-0.12346 0.67715,-0.10827 0.81916,0.0337 0.14202,0.14202 -0.11041,0.24303 -0.56094,0.22448 -0.49789,-0.0205 -0.59916,-0.12178 -0.25822,-0.25822 z m 3.46498,-0.98558 c 1.27401,-0.47118 2.39635,-0.77673 2.49409,-0.67898 0.32174,0.32173 -1.37614,1.02123 -3.10878,1.28077 -1.58891,0.23801 -1.54818,0.19813 0.61469,-0.60179 z m -26.85745,-1.62866 c -0.0375,-0.61782 1.14859,-3.07734 1.48406,-3.07734 0.11753,0 -0.0533,0.52889 -0.37972,1.17532 -0.32638,0.64642 -0.70079,1.4638 -0.83201,1.8164 -0.16027,0.43064 -0.24967,0.45875 -0.27233,0.0856 z m 31.59299,-0.1078 c 1.46176,-0.99525 2.99171,-1.68569 2.99171,-1.35012 0,0.19756 -0.67966,0.68332 -1.51036,1.07945 -1.67667,0.79955 -2.47143,0.94476 -1.48135,0.27067 z m 5.25983,-3.39553 c 2.17874,-1.93695 4.5594,-5.62051 4.56608,-7.06505 0.007,-1.57029 -1.25082,-2.8673 -2.59053,-2.67068 -0.66374,0.0974 -1.10945,0.0196 -0.99046,-0.17293 0.40516,-0.65557 2.30024,-0.35265 3.15762,0.50472 1.68698,1.68698 0.7876,4.72113 -2.414,8.1439 -1.12078,1.1982 -2.43048,2.38283 -2.91045,2.63251 -0.47998,0.24968 0.0518,-0.36793 1.18174,-1.37247 z m -16.02468,0.98881 c 0.30852,-0.12346 0.67715,-0.10827 0.81916,0.0337 0.14202,0.14202 -0.1104,0.24303 -0.56094,0.22448 -0.49789,-0.0205 -0.59916,-0.12178 -0.25822,-0.25822 z m 2.43077,-0.56282 c 1.17493,-0.50488 1.84973,-0.50488 1.06847,0 -0.35259,0.22787 -0.92956,0.40373 -1.28216,0.39081 -0.42271,-0.0155 -0.34992,-0.14862 0.21369,-0.39081 z m 74.24743,-1.19341 -0.9729,-1.58461 1.07975,1.19915 c 0.59386,0.65953 1.07975,1.38075 1.07975,1.6027 0,0.62847 -0.14423,0.48051 -1.1866,-1.21724 z m -95.83053,0.63229 c 0,-0.0735 0.62505,-0.69861 1.38901,-1.38901 l 1.38901,-1.25528 -1.25528,1.38901 c -1.17009,1.29476 -1.52274,1.58546 -1.52274,1.25528 z m 28.20762,-1.75944 c 0,-0.11753 0.38465,-0.41955 0.85478,-0.67116 0.47013,-0.2516 0.85478,-0.3613 0.85478,-0.24376 0,0.11753 -0.38465,0.41955 -0.85478,0.67115 -0.47013,0.25161 -0.85478,0.3613 -0.85478,0.24377 z m 64.10824,-2.4189 c -0.92049,-0.75292 -0.93859,-0.81047 -0.13065,-0.41558 0.5158,0.2521 1.05605,0.64966 1.20054,0.88346 0.38575,0.62415 0.12668,0.51086 -1.06989,-0.46788 z m -86.33243,-0.14253 c 0.58766,-0.35407 1.35696,-0.64473 1.70956,-0.64591 0.56985,-0.002 0.56985,0.0382 0,0.36054 -0.3526,0.19948 -1.1219,0.49014 -1.70956,0.64592 l -1.06847,0.28322 z m 8.54777,-2.32591 c 1.59566,-0.52554 4.66877,-0.97612 3.6328,-0.53264 -0.47013,0.20125 -1.72024,0.4826 -2.77803,0.62523 -1.26559,0.17064 -1.55788,0.13898 -0.85477,-0.0926 z m 69.0232,-0.29768 -2.99172,-0.56608 2.70019,0.21384 c 1.48511,0.11761 3.11987,0.38295 3.6328,0.58964 1.26912,0.51138 0.22342,0.43708 -3.34127,-0.2374 z m -49.14965,-1.04218 c 0.36467,-0.70519 0.7592,-1.28217 0.87673,-1.28217 0.11753,0 -0.0847,0.57698 -0.44934,1.28217 -0.36467,0.70519 -0.7592,1.28216 -0.87673,1.28216 -0.11753,0 0.0847,-0.57697 0.44934,-1.28216 z m 41.78308,0.1207 c 0.64966,-0.0982 1.61128,-0.0956 2.13694,0.006 0.52566,0.10145 -0.006,0.18182 -1.18119,0.17862 -1.17532,-0.003 -1.60541,-0.0862 -0.95575,-0.18445 z m -4.06606,-0.40375 c 0.29383,-0.11857 0.77464,-0.11857 1.06847,0 0.29383,0.11856 0.0534,0.21556 -0.53424,0.21556 -0.58766,0 -0.82806,-0.097 -0.53423,-0.21556 z m -3.41911,-0.81619 c -1.65708,-0.89897 -1.4694,-1.20922 0.21369,-0.35324 1.61105,0.81933 1.89618,1.03168 1.3534,1.00798 -0.21547,-0.009 -0.92067,-0.30404 -1.56709,-0.65474 z m -45.19631,0.16631 c 0.11753,-0.10666 1.27148,-1.13599 2.56433,-2.28739 2.3173,-2.06378 2.32639,-2.06743 0.64108,-0.25752 -0.94025,1.00977 -2.0942,2.0391 -2.56433,2.2874 -0.47012,0.24829 -0.75861,0.36418 -0.64108,0.25751 z m 40.69489,-3.23411 c -1.02225,-0.99902 -1.03929,-1.04806 -0.11359,-0.32694 1.82403,1.42091 1.91114,1.50226 1.60867,1.50226 -0.16084,0 -0.83363,-0.52889 -1.49508,-1.17532 z m -35.14804,-2.65825 c 0.49707,-0.69808 1.12204,-1.40414 1.38881,-1.56901 0.26676,-0.16487 -0.0535,0.40629 -0.71171,1.26924 -1.42862,1.87302 -1.96712,2.11142 -0.6771,0.29977 z m 31.93264,0.18726 c -0.65953,-0.58023 -1.02963,-1.05496 -0.82243,-1.05496 0.2072,0 0.82842,0.48081 1.3805,1.06847 1.2773,1.35962 0.99496,1.35279 -0.55807,-0.0135 z m -3.28843,-2.82878 c -0.82272,-0.72142 -1.10906,-1.11607 -0.6363,-0.87699 0.78064,0.39478 2.71647,2.24732 2.30525,2.20605 -0.0952,-0.01 -0.84623,-0.60763 -1.66895,-1.32906 z m -25.00221,-1.64529 c 1.15764,-1.17532 2.20097,-2.13694 2.3185,-2.13694 0.11753,0 -0.73347,0.96162 -1.89111,2.13694 -1.15765,1.17532 -2.20097,2.13694 -2.31851,2.13694 -0.11753,0 0.73347,-0.96162 1.89112,-2.13694 z m 35.01895,0.74793 -1.25528,-1.38901 1.38901,1.25528 c 1.29476,1.17009 1.58546,1.52274 1.25528,1.52274 -0.0735,0 -0.69861,-0.62505 -1.38901,-1.38901 z m 9.64312,1.22765 c 0,-0.0888 0.33657,-0.42532 0.74793,-0.74793 0.67786,-0.53162 0.69298,-0.5165 0.16136,0.16136 -0.55832,0.71192 -0.90929,0.93833 -0.90929,0.58657 z m -54.06461,-1.97558 c 0.42546,-0.47013 0.86972,-0.85478 0.98725,-0.85478 0.11754,0 -0.13441,0.38465 -0.55986,0.85478 -0.42546,0.47013 -0.86973,0.85478 -0.98726,0.85478 -0.11753,0 0.13441,-0.38465 0.55987,-0.85478 z m 30.98565,-0.89296 c -0.70969,-0.58049 -0.78144,-0.72562 -0.2137,-0.4322 1.39404,0.72046 2.16689,1.31228 1.70955,1.30911 -0.23506,-0.002 -0.9082,-0.39624 -1.49585,-0.87691 z m -45.10704,-2.12719 c -0.15494,-0.2507 -0.19005,-0.54749 -0.078,-0.65952 0.11203,-0.11203 0.31758,0.0931 0.45677,0.45583 0.289,0.7531 0.0427,0.88557 -0.37875,0.20369 z m 27.77265,-0.19113 c 0.45629,-0.34937 1.08135,-0.63521 1.38901,-0.63521 0.95306,0 0.62072,0.32331 -0.82961,0.80709 -1.27079,0.42389 -1.3184,0.40926 -0.5594,-0.17188 z m 12.20573,0.006 c -0.82273,-0.31683 -1.20737,-0.58201 -0.85478,-0.58929 0.3526,-0.007 1.21806,0.25095 1.92325,0.57385 1.6506,0.7558 0.88285,0.76689 -1.06847,0.0154 z m -23.26519,-1.19375 c 0.1605,-0.4215 0.39948,-0.6587 0.53107,-0.52712 0.13159,0.13159 2.7e-4,0.47645 -0.29182,0.76637 -0.42209,0.41895 -0.47118,0.36986 -0.23925,-0.23925 z m 13.78251,0.26071 c 0.30852,-0.12346 0.67714,-0.10828 0.81916,0.0337 0.14202,0.14202 -0.11041,0.24303 -0.56095,0.22447 -0.49788,-0.0205 -0.59915,-0.12178 -0.25821,-0.25821 z m 6.38411,0.009 c 0.29383,-0.11856 0.77464,-0.11856 1.06847,0 0.29383,0.11856 0.0534,0.21557 -0.53423,0.21557 -0.58766,0 -0.82807,-0.097 -0.53424,-0.21557 z m 36.89598,-4.24014 c 0.0205,-0.49788 0.12178,-0.59916 0.25821,-0.25822 0.12346,0.30853 0.10828,0.67715 -0.0337,0.81917 -0.14201,0.14201 -0.24303,-0.11041 -0.22447,-0.56095 z m -20.05351,-1.46027 c 0,-0.58766 0.097,-0.82806 0.21557,-0.53423 0.11857,0.29383 0.11857,0.77464 0,1.06847 -0.11856,0.29383 -0.21557,0.0534 -0.21557,-0.53424 z m -55.97202,-1.49586 c 0.009,-0.70519 0.10449,-0.94193 0.21286,-0.5261 0.10836,0.41584 0.10123,0.99281 -0.0159,1.28217 -0.11707,0.28935 -0.20573,-0.0509 -0.19702,-0.75607 z m 55.54464,-1.06847 c 0,-0.58766 0.097,-0.82806 0.21556,-0.53423 0.11857,0.29383 0.11857,0.77464 0,1.06847 -0.11856,0.29383 -0.21556,0.0534 -0.21556,-0.53424 z m -34.61845,-0.42739 c 0,-0.58766 0.097,-0.82806 0.21556,-0.53423 0.11857,0.29383 0.11857,0.77464 0,1.06847 -0.11856,0.29383 -0.21556,0.0534 -0.21556,-0.53424 z m -21.31466,-2.77802 c 0.003,-1.17532 0.0862,-1.6054 0.18445,-0.95575 0.0982,0.64966 0.0956,1.61128 -0.006,2.13694 -0.10145,0.52566 -0.18183,-0.006 -0.17862,-1.18119 z m 77.35144,-0.21369 c 0,-1.05779 0.0834,-1.49052 0.18522,-0.96163 0.10187,0.52889 0.10187,1.39436 0,1.92325 -0.10187,0.52889 -0.18522,0.0962 -0.18522,-0.96162 z m -56.03678,-2.56433 c 0,-0.58766 0.097,-0.82807 0.21556,-0.53424 0.11857,0.29383 0.11857,0.77464 0,1.06847 -0.11856,0.29383 -0.21556,0.0534 -0.21556,-0.53423 z m 34.63428,-0.64109 c 0.009,-0.70519 0.1045,-0.94193 0.21286,-0.5261 0.10836,0.41584 0.10123,0.99281 -0.0158,1.28217 -0.11707,0.28935 -0.20573,-0.0509 -0.19702,-0.75607 z m -55.56047,-1.28216 c 0.009,-0.70519 0.10449,-0.94194 0.21286,-0.5261 0.10836,0.41583 0.10123,0.99281 -0.0159,1.28216 -0.11707,0.28936 -0.20573,-0.0509 -0.19702,-0.75606 z m 76.45292,-0.89039 c 0.0205,-0.49789 0.12178,-0.59916 0.25821,-0.25822 0.12346,0.30852 0.10828,0.67715 -0.0337,0.81916 -0.14202,0.14202 -0.24303,-0.11041 -0.22447,-0.56094 z m -20.4809,-0.60547 c 0,-0.58766 0.097,-0.82806 0.21557,-0.53423 0.11857,0.29382 0.11857,0.77464 0,1.06847 -0.11856,0.29383 -0.21557,0.0534 -0.21557,-0.53424 z m 7.99838,0.10685 c -0.53161,-0.67786 -0.5165,-0.69298 0.16137,-0.16136 0.71192,0.55832 0.93832,0.90929 0.58656,0.90929 -0.0888,0 -0.42532,-0.33657 -0.74793,-0.74793 z m 12.05513,-1.21094 c 0.0205,-0.49788 0.12178,-0.59915 0.25821,-0.25821 0.12346,0.30852 0.10828,0.67714 -0.0337,0.81916 -0.14201,0.14202 -0.24303,-0.11041 -0.22447,-0.56095 z m -19.65702,-0.60546 c -0.0129,-0.3526 0.16294,-0.92957 0.39081,-1.28217 0.50488,-0.78125 0.50488,-0.10645 0,1.06847 -0.2422,0.56362 -0.37532,0.63641 -0.39081,0.2137 z m -40.87905,-9.082 -1.25527,-1.38902 1.38901,1.25528 c 1.29475,1.1701 1.58546,1.52275 1.25528,1.52275 -0.0736,0 -0.69861,-0.62506 -1.38902,-1.38901 z m 44.68896,0.80026 c 0,-0.0888 0.33657,-0.42532 0.74793,-0.74793 0.67786,-0.53162 0.69298,-0.5165 0.16137,0.16136 -0.55833,0.71192 -0.9093,0.93832 -0.9093,0.58657 z m -54.27831,-1.28217 c 0,-0.0888 0.33657,-0.42532 0.74793,-0.74793 0.67787,-0.53161 0.69298,-0.5165 0.16137,0.16137 -0.55833,0.71192 -0.9093,0.93832 -0.9093,0.58656 z m 64.05373,-0.58656 c -0.53162,-0.67787 -0.5165,-0.69298 0.16136,-0.16137 0.41136,0.32261 0.74793,0.65918 0.74793,0.74793 0,0.35176 -0.35096,0.12536 -0.90929,-0.58656 z m -58.57781,-1.25358 c 0.30852,-0.12346 0.67714,-0.10828 0.81916,0.0337 0.14201,0.14201 -0.11041,0.24303 -0.56095,0.22447 -0.49788,-0.0205 -0.59915,-0.12178 -0.25821,-0.25821 z"
     id="path5"
     sodipodi:nodetypes="ssssssssssscssssscssssssssssssssssssssssssssssscsssscssscscssscsssssssssssssssssssssssssssssssscssssssssssscssssssssssssscssssssssssssssssscssscscscsccccscccssssssssssssssssssssssssssssssscsssssssssssssssscssssscssssssssssssssscssssssscsssssssscccccsssssscssssssssssssssssssssscssssssscsssssssssssssscssssssssssscsssssssssssssssssssssssssssssssssssssscscccssssssssssssssssssssssssssssssssssssssssscssssssssssssssssssss" /><path
     style="fill:#ff0000;fill-opacity:1"
     d="m 316.53587,602.96417 c -22.86789,-0.61985 -44.3303,-2.7302 -51.76547,-5.08999 -5.20228,-1.65112 -9.70577,-5.40969 -16.1274,-13.4598 -2.68834,-3.37007 -6.16028,-10.70963 -7.58153,-16.02705 -0.90536,-3.3873 -1.02581,-4.73938 -1.00893,-11.32579 0.0175,-6.83286 0.12128,-7.84401 1.20067,-11.69903 2.17005,-7.75029 4.42371,-12.55146 8.5188,-18.14833 2.26387,-3.09409 6.55979,-7.26495 9.57332,-9.29462 4.89057,-3.29391 4.97665,-4.29684 0.96897,-11.28984 -0.74093,-1.29285 -1.49797,-2.54296 -1.68231,-2.77802 -1.55099,-1.97778 -10.71598,-21.59682 -11.9792,-25.6433 -0.29352,-0.94025 -0.69005,-1.90846 -0.88117,-2.15157 -0.19112,-0.24311 -1.14099,-3.22415 -2.11083,-6.62452 -1.54531,-5.41808 -1.7928,-6.89588 -2.00169,-11.95224 -0.75538,-18.2848 5.54274,-37.19698 17.43527,-52.35506 13.29103,-16.94061 30.67508,-27.66274 52.51629,-32.391 6.1308,-1.32721 6.35501,-1.34378 18.17425,-1.34277 11.91365,0.001 11.99443,0.007 18.164,1.3791 10.99274,2.4445 19.16494,5.58987 27.78024,10.69223 22.02897,13.04653 36.81116,34.26585 41.1427,59.05891 0.75976,4.34873 0.93365,7.01165 0.93499,14.31751 0.003,17.68838 -3.39991,33.8692 -9.64215,45.84538 -2.09972,4.02848 -6.05102,9.55628 -8.44901,11.82005 -3.36431,3.17599 -1.26384,8.16394 3.38228,8.03184 1.70446,-0.0485 2.12994,-0.36259 4.4679,-3.29858 2.62289,-3.29382 3.55879,-4.18607 6.04392,-5.7621 6.15964,-3.90632 9.89104,0.66343 14.46563,17.7157 2.31883,8.64367 2.95801,13.23423 2.97728,21.38268 0.0163,6.90787 -0.0842,8.02012 -0.98511,10.8984 -4.40788,14.0825 -9.16578,21.07363 -19.50629,28.66198 -7.45452,5.47048 -9.4449,6.26952 -19.46687,7.815 -9.6426,1.48697 -9.60534,1.48303 -20.92132,2.21146 -9.49645,0.6113 -42.49105,1.10549 -53.63723,0.80337 z m -51.7445,-10.67363 c 1.30985,-1.30985 0.83969,-2.93699 -1.35849,-4.70153 -9.30763,-7.47149 -14.74915,-17.90957 -15.35738,-29.459 -0.18876,-3.58413 -0.0501,-5.046 0.8594,-9.05808 0.59647,-2.6313 1.77058,-6.36742 2.60915,-8.30248 0.83857,-1.93505 1.52467,-3.902 1.52467,-4.371 0,-1.15464 -1.21211,-2.41588 -2.32178,-2.41588 -1.73157,0 -2.69814,1.23523 -4.43848,5.67213 -3.38907,8.64025 -4.28892,17.15086 -2.65386,25.09982 1.11199,5.40597 1.32243,6.05379 3.33917,10.27928 2.95964,6.20106 7.08809,11.57133 12.03469,15.65468 2.914,2.40547 4.51455,2.85041 5.76291,1.60206 z m 56.21076,-93.57683 c 2.45644,-0.34912 5.6298,-0.91263 7.05191,-1.25225 1.4221,-0.33961 3.73959,-0.83383 5.14998,-1.09826 12.6892,-2.37903 25.83781,-7.48638 31.68171,-12.3062 3.5196,-2.90283 6.14215,-7.55707 6.14215,-10.90047 0,-2.71224 -1.62779,-6.87141 -3.41876,-8.73527 -3.33264,-3.46828 -6.85852,-4.63209 -16.62672,-5.48807 -8.95934,-0.78509 -9.9253,-1.17967 -16.79515,-6.86056 -2.51505,-2.07978 -5.01527,-4.13965 -5.55605,-4.5775 -0.54078,-0.43785 -2.42567,-1.49563 -4.18864,-2.35063 -3.14111,-1.52336 -3.3083,-1.55455 -8.33407,-1.55455 -4.84917,0 -5.23682,0.0648 -7.11339,1.18935 -2.20583,1.32183 -4.84304,3.99645 -7.51318,7.61976 -3.72805,5.05886 -4.52395,5.46797 -15.718,8.07947 -8.44039,1.96909 -11.44285,3.62894 -13.79166,7.62445 -1.03805,1.7658 -1.16693,2.41087 -1.16693,5.84053 0,3.49505 0.13134,4.12227 1.40494,6.70932 3.63615,7.38607 12.03981,12.77266 25.30261,16.21848 9.39563,2.44109 15.76276,2.9405 23.48925,1.8424 z m -28.59874,-48.06895 c 3.33356,-0.9261 6.86301,-6.46168 7.95648,-12.47894 0.76489,-4.20911 0.52651,-11.34621 -0.49295,-14.75923 -2.86511,-9.59198 -9.17734,-13.4713 -14.33617,-8.8106 -6.80592,6.14874 -8.19816,21.83522 -2.7778,31.29759 0.96363,1.68222 3.31763,3.97254 4.70347,4.57624 1.57109,0.6844 2.939,0.73278 4.94697,0.17494 z m 56.36825,-0.25364 c 3.63075,-1.45273 6.9393,-7.77169 7.7317,-14.76665 0.94181,-8.31388 -1.02488,-15.88081 -5.25893,-20.23393 -2.50556,-2.57603 -4.40993,-3.22789 -7.08694,-2.42584 -1.42166,0.42594 -3.54166,2.12643 -5.14653,4.12812 -1.05708,1.31846 -2.99488,6.57188 -3.50531,9.50301 -0.76194,4.37535 -0.27186,10.76252 1.13995,14.85718 2.71137,7.86374 6.96858,11.00173 12.12606,8.93811 z m -83.48536,-38.1139 c 0.25541,-0.1727 1.01336,-1.27562 1.68433,-2.45094 6.27471,-10.99121 17.92123,-20.12813 33.11082,-25.97607 4.64268,-1.78742 8.08298,-2.64037 13.21177,-3.27557 3.81099,-0.47199 5.17079,-1.19991 5.15938,-2.76187 -0.0172,-2.34749 -1.62848,-2.95736 -6.29286,-2.38177 -4.7211,0.58258 -5.03043,0.6512 -9.94135,2.20523 -8.7597,2.77195 -16.91902,6.91816 -23.93375,12.16207 -9.01407,6.73855 -17.90578,18.0549 -16.69295,21.24488 0.53322,1.40247 2.48256,2.05357 3.69461,1.23404 z"
     id="path4"
     sodipodi:nodetypes="ssssssssssssssssscsscssssssssssssssssssssssssssssssssssssssssssssssssssssssssssssssssssss" /><path
     style="fill:#000000"
     d="m 314.82632,611.51092 c -1.17532,-0.0844 -6.17576,-0.35287 -11.11209,-0.59668 -20.3512,-1.00517 -35.10572,-2.80745 -42.15408,-5.14916 -11.7393,-3.9002 -24.17655,-19.02462 -28.6281,-34.81343 -1.43145,-5.07706 -1.44568,-5.21464 -1.41451,-13.67642 0.0311,-8.44858 0.0493,-8.61223 1.56626,-14.10381 2.81198,-10.17973 5.96819,-16.39817 11.96212,-23.56802 2.26792,-2.71284 5.93787,-6.25728 7.97258,-7.6999 0.16234,-0.11511 -1.12537,-2.70821 -3.78622,-7.62441 -5.69195,-10.51649 -10.86967,-22.7527 -13.83489,-32.69521 -3.22371,-10.80925 -3.09845,-24.4439 0.34945,-38.03755 2.89787,-11.42509 7.93642,-21.88307 15.79046,-32.77459 6.1067,-8.46841 17.85793,-18.88731 28.06879,-24.8864 4.80434,-2.82264 12.81443,-6.42337 18.49986,-8.31613 10.3627,-3.44988 20.14221,-4.96933 31.98373,-4.96933 8.45099,0 13.44385,0.52097 20.98957,2.19011 21.4881,4.75326 40.18588,16.07141 54.16884,32.78952 13.25775,15.85106 20.58562,35.30846 21.22395,56.35517 0.43201,14.24396 -2.3367,31.78654 -6.9677,44.14728 -0.83664,2.2331 -1.62166,4.37693 -1.74448,4.76407 -0.17534,0.55265 0.17518,0.77038 1.63141,1.01334 2.43088,0.40558 5.52319,1.99129 7.67591,3.93614 3.76654,3.40285 8.13526,14.96074 11.10991,29.39247 1.33162,6.46041 1.4086,7.32228 1.39329,15.59967 l -0.0162,8.76146 -1.53807,4.91497 c -2.71027,8.66082 -6.4185,16.48602 -9.92181,20.93726 -1.90112,2.41552 -7.9194,8.11745 -11.12219,10.53753 -9.53233,7.2028 -12.21546,8.36037 -23.9617,10.33764 -7.18372,1.20926 -10.28228,1.51582 -27.11119,2.68234 -6.32078,0.43814 -46.59498,0.87347 -51.0729,0.55207 z m 55.34678,-9.35012 c 11.31598,-0.72843 11.27872,-0.72449 20.92132,-2.21146 10.02197,-1.54548 12.01235,-2.34452 19.46687,-7.815 10.34051,-7.58835 15.09841,-14.57948 19.50629,-28.66198 0.90091,-2.87828 1.00145,-3.99053 0.98511,-10.8984 -0.0193,-8.14845 -0.65845,-12.73901 -2.97728,-21.38268 -4.57459,-17.05227 -8.30599,-21.62202 -14.46563,-17.7157 -2.48513,1.57603 -3.42103,2.46828 -6.04392,5.7621 -2.33796,2.93599 -2.76344,3.25012 -4.4679,3.29858 -4.64612,0.1321 -6.74659,-4.85585 -3.38228,-8.03184 2.39799,-2.26377 6.34929,-7.79157 8.44901,-11.82005 6.24224,-11.97618 9.64537,-28.157 9.64215,-45.84538 -0.001,-7.30586 -0.17523,-9.96878 -0.93499,-14.31751 -0.91263,-5.22374 -2.9216,-12.3958 -4.78865,-17.09553 -6.81077,-17.1441 -19.83881,-32.18232 -36.35405,-41.96338 -8.6153,-5.10236 -16.7875,-8.24773 -27.78024,-10.69223 -6.16957,-1.37196 -6.25035,-1.37809 -18.164,-1.3791 -11.81924,-10e-4 -12.04345,0.0156 -18.17425,1.34277 -21.84121,4.72826 -39.22526,15.45039 -52.51629,32.391 -11.89253,15.15808 -18.19065,34.07026 -17.43527,52.35506 0.20889,5.05636 0.45638,6.53416 2.00169,11.95224 0.96984,3.40037 1.91971,6.38141 2.11083,6.62452 0.19112,0.24311 0.58765,1.21132 0.88117,2.15157 1.26322,4.04648 10.42821,23.66552 11.9792,25.6433 0.59116,0.75382 3.00147,5.06896 3.89108,6.96614 0.88666,1.89089 0.82523,3.53472 -0.17887,4.78703 -0.28272,0.3526 -1.63221,1.39421 -2.99887,2.31469 -3.01353,2.02967 -7.30945,6.20053 -9.57332,9.29462 -4.09509,5.59687 -6.34875,10.39804 -8.5188,18.14833 -1.07939,3.85502 -1.18317,4.86617 -1.20067,11.69903 -0.0169,6.58641 0.10357,7.93849 1.00893,11.32579 1.42125,5.31742 4.89319,12.65698 7.58153,16.02705 4.31539,5.40975 6.81782,7.89837 11.32933,11.2668 2.37214,1.77112 7.2444,3.10882 15.63107,4.29159 10.91123,1.53881 24.80655,2.5543 40.93247,2.9914 11.14618,0.30212 44.14078,-0.19207 53.63723,-0.80337 z M 310.44559,499.06951 c 0.41136,-0.1075 1.0845,-0.1075 1.49586,0 0.41136,0.1075 0.0748,0.19546 -0.74793,0.19546 -0.82272,0 -1.15929,-0.088 -0.74793,-0.19546 z m 6.22384,0.003 c 0.30852,-0.12346 0.67715,-0.10828 0.81916,0.0337 0.14202,0.14201 -0.11041,0.24303 -0.56094,0.22447 -0.49789,-0.0205 -0.59916,-0.12178 -0.25822,-0.25821 z m -9.63481,-0.43161 c 0.41583,-0.10836 0.99281,-0.10124 1.28216,0.0158 0.28936,0.11707 -0.0509,0.20573 -0.75606,0.19702 -0.70519,-0.009 -0.94194,-0.10449 -0.5261,-0.21285 z m 12.39426,0 c 0.41583,-0.10836 0.99281,-0.10124 1.28216,0.0158 0.28936,0.11707 -0.0509,0.20573 -0.75606,0.19702 -0.70519,-0.009 -0.94194,-0.10449 -0.5261,-0.21285 z m -16.99682,-0.5586 c -1.15169,-0.29306 -1.17343,-0.32707 -0.21369,-0.33422 0.58766,-0.004 1.54928,0.14601 2.13694,0.33422 0.83725,0.26813 0.88349,0.34046 0.21369,0.33422 -0.47012,-0.004 -1.43175,-0.15478 -2.13694,-0.33422 z m 20.38359,0.007 c 0.63312,-0.19097 2.17172,-0.45548 3.41911,-0.58781 l 2.26798,-0.2406 -2.56432,0.6059 c -2.80821,0.66353 -5.13433,0.82928 -3.12277,0.22251 z m -22.81436,-0.72604 c 0.30852,-0.12346 0.67714,-0.10827 0.81916,0.0337 0.14202,0.14202 -0.11041,0.24303 -0.56095,0.22448 -0.49788,-0.0205 -0.59915,-0.12178 -0.25821,-0.25822 z m -5.12866,-1.28216 c 0.30852,-0.12346 0.67714,-0.10828 0.81916,0.0337 0.14202,0.14202 -0.11041,0.24303 -0.56094,0.22447 -0.49789,-0.0205 -0.59916,-0.12178 -0.25822,-0.25821 z m -3.25883,-0.85478 c -1.01372,-0.35852 -1.76755,-0.72743 -1.67519,-0.81979 0.195,-0.19499 4.15938,1.1066 4.15938,1.36562 0,0.26762 -0.48631,0.16077 -2.48419,-0.54583 z m 44.15455,0.29196 c 0.47012,-0.20202 1.23942,-0.36166 1.70955,-0.35475 0.68715,0.0101 0.64524,0.0797 -0.2137,0.35475 -1.46131,0.46799 -2.58494,0.46799 -1.49585,0 z m 3.12527,-0.71935 c 0.30852,-0.12346 0.67715,-0.10827 0.81916,0.0337 0.14202,0.14202 -0.11041,0.24303 -0.56094,0.22448 -0.49789,-0.0205 -0.59916,-0.12178 -0.25822,-0.25822 z m 4.70127,-1.28216 c 0.30852,-0.12346 0.67715,-0.10828 0.81916,0.0337 0.14202,0.14202 -0.1104,0.24303 -0.56094,0.22447 -0.49789,-0.0205 -0.59916,-0.12178 -0.25822,-0.25821 z m -58.15151,-0.80793 c -1.65708,-0.89898 -1.4694,-1.20922 0.21369,-0.35325 1.61105,0.81934 1.89618,1.03169 1.3534,1.00798 -0.21548,-0.009 -0.92067,-0.30404 -1.56709,-0.65473 z m 59.9412,0.24446 c 0.3526,-0.22787 0.92957,-0.4143 1.28217,-0.4143 0.56985,0 0.56985,0.046 0,0.4143 -0.3526,0.22786 -0.92957,0.4143 -1.28217,0.4143 -0.56985,0 -0.56985,-0.046 0,-0.4143 z m 7.90668,-2.75664 c 1.17532,-0.57057 2.32927,-1.0407 2.56433,-1.04474 0.64458,-0.0111 -2.40789,1.51735 -3.6328,1.819 -0.58766,0.14472 -0.10684,-0.2037 1.06847,-0.77426 z m -72.50181,-0.26045 -1.00897,-0.88014 1.17532,0.7156 c 0.64643,0.39358 1.17532,0.78965 1.17532,0.88015 0,0.33372 -0.35708,0.14326 -1.34167,-0.71561 z m -2.26597,-1.48408 c -0.45629,-0.34512 -0.62408,-0.62749 -0.37287,-0.62749 0.2512,0 0.69616,0.28849 0.98879,0.64108 0.66553,0.80192 0.45617,0.7973 -0.61592,-0.0136 z m 79.68275,-0.36807 c 0,-0.0924 0.29848,-0.28251 0.66328,-0.42249 0.38034,-0.14596 0.55189,-0.0743 0.40216,0.16796 -0.25098,0.40611 -1.06544,0.60068 -1.06544,0.25453 z m -82.09089,-1.86213 -1.03613,-1.17532 1.17532,1.03613 c 1.09851,0.96841 1.37131,1.31451 1.03612,1.31451 -0.0766,0 -0.60545,-0.52889 -1.17531,-1.17532 z m 85.93738,-0.2764 c 0,-0.1098 0.62506,-0.63794 1.38902,-1.17366 0.98552,-0.69108 1.21299,-0.75483 0.78307,-0.21946 -0.61163,0.76167 -2.17209,1.7625 -2.17209,1.39312 z m -87.99907,-2.09367 c -0.54061,-0.90021 -0.53151,-0.90932 0.20443,-0.20443 0.42364,0.40576 0.67826,0.82975 0.56582,0.94218 -0.11244,0.11244 -0.45905,-0.21955 -0.77025,-0.73775 z m 92.05926,-1.15588 c 0.42546,-0.47013 0.86973,-0.85478 0.98726,-0.85478 0.11753,0 -0.13441,0.38465 -0.55987,0.85478 -0.42546,0.47013 -0.86972,0.85478 -0.98726,0.85478 -0.11753,0 0.13441,-0.38465 0.55987,-0.85478 z m -94.3993,-2.98264 c -0.38202,-0.95476 -0.68831,-2.06861 -0.68063,-2.47521 0.008,-0.4066 0.37835,0.31645 0.82372,1.60679 0.95467,2.76586 0.85592,3.36519 -0.14309,0.86842 z m 96.78991,-0.009 c 1.23835,-1.91881 1.24258,-1.9238 1.24007,-1.46024 -10e-4,0.21547 -0.49787,0.96874 -1.10379,1.67394 l -1.10167,1.28216 z m -97.77945,-5.76974 c 0.002,-1.41038 0.0822,-1.93583 0.17731,-1.16766 0.0951,0.76816 0.0932,1.92211 -0.004,2.56433 -0.0975,0.64221 -0.17535,0.0137 -0.17295,-1.39667 z m 99.99866,-0.85478 c 0.003,-1.17531 0.0862,-1.6054 0.18444,-0.95574 0.0982,0.64965 0.0956,1.61128 -0.006,2.13694 -0.10145,0.52566 -0.18182,-0.006 -0.17861,-1.1812 z m -83.21873,-0.0305 c -0.98202,-0.98202 -0.83765,-2.90183 0.29001,-3.85658 0.96066,-0.81335 0.96087,-0.81327 0.2137,0.0743 -0.92477,1.09849 -0.95222,2.26252 -0.0826,3.50405 0.77234,1.10268 0.55014,1.24951 -0.4211,0.27827 z m 4.8043,0.37965 c 0.30852,-0.12346 0.67715,-0.10828 0.81916,0.0337 0.14202,0.14202 -0.11041,0.24303 -0.56094,0.22447 -0.49789,-0.0205 -0.59916,-0.12178 -0.25822,-0.25821 z m 2.13694,-0.42739 c 0.30852,-0.12346 0.67715,-0.10827 0.81916,0.0337 0.14202,0.14202 -0.11041,0.24303 -0.56094,0.22448 -0.49789,-0.0205 -0.59916,-0.12178 -0.25822,-0.25822 z m 3.46498,-0.98558 c 1.27401,-0.47118 2.39635,-0.77673 2.49409,-0.67898 0.32174,0.32173 -1.37614,1.02123 -3.10878,1.28077 -1.58891,0.23801 -1.54818,0.19813 0.61469,-0.60179 z m -26.85745,-1.62866 c -0.0375,-0.61782 1.14859,-3.07734 1.48406,-3.07734 0.11753,0 -0.0533,0.52889 -0.37972,1.17532 -0.32638,0.64642 -0.70079,1.4638 -0.83201,1.8164 -0.16027,0.43064 -0.24967,0.45875 -0.27233,0.0856 z m 31.59299,-0.1078 c 1.46176,-0.99525 2.99171,-1.68569 2.99171,-1.35012 0,0.19756 -0.67966,0.68332 -1.51036,1.07945 -1.67667,0.79955 -2.47143,0.94476 -1.48135,0.27067 z m 5.25983,-3.39553 c 2.17874,-1.93695 4.5594,-5.62051 4.56608,-7.06505 0.007,-1.57029 -1.25082,-2.8673 -2.59053,-2.67068 -0.66374,0.0974 -1.10945,0.0196 -0.99046,-0.17293 0.40516,-0.65557 2.30024,-0.35265 3.15762,0.50472 1.68698,1.68698 0.7876,4.72113 -2.414,8.1439 -1.12078,1.1982 -2.43048,2.38283 -2.91045,2.63251 -0.47998,0.24968 0.0518,-0.36793 1.18174,-1.37247 z m -16.02468,0.98881 c 0.30852,-0.12346 0.67715,-0.10827 0.81916,0.0337 0.14202,0.14202 -0.1104,0.24303 -0.56094,0.22448 -0.49789,-0.0205 -0.59916,-0.12178 -0.25822,-0.25822 z m 2.43077,-0.56282 c 1.17493,-0.50488 1.84973,-0.50488 1.06847,0 -0.35259,0.22787 -0.92956,0.40373 -1.28216,0.39081 -0.42271,-0.0155 -0.34992,-0.14862 0.21369,-0.39081 z m 74.24743,-1.19341 -0.9729,-1.58461 1.07975,1.19915 c 0.59386,0.65953 1.07975,1.38075 1.07975,1.6027 0,0.62847 -0.14423,0.48051 -1.1866,-1.21724 z m -95.83053,0.63229 c 0,-0.0735 0.62505,-0.69861 1.38901,-1.38901 l 1.38901,-1.25528 -1.25528,1.38901 c -1.17009,1.29476 -1.52274,1.58546 -1.52274,1.25528 z m 28.20762,-1.75944 c 0,-0.11753 0.38465,-0.41955 0.85478,-0.67116 0.47013,-0.2516 0.85478,-0.3613 0.85478,-0.24376 0,0.11753 -0.38465,0.41955 -0.85478,0.67115 -0.47013,0.25161 -0.85478,0.3613 -0.85478,0.24377 z m 64.10824,-2.4189 c -0.92049,-0.75292 -0.93859,-0.81047 -0.13065,-0.41558 0.5158,0.2521 1.05605,0.64966 1.20054,0.88346 0.38575,0.62415 0.12668,0.51086 -1.06989,-0.46788 z m -86.33243,-0.14253 c 0.58766,-0.35407 1.35696,-0.64473 1.70956,-0.64591 0.56985,-0.002 0.56985,0.0382 0,0.36054 -0.3526,0.19948 -1.1219,0.49014 -1.70956,0.64592 l -1.06847,0.28322 z m 8.54777,-2.32591 c 1.59566,-0.52554 4.66877,-0.97612 3.6328,-0.53264 -0.47013,0.20125 -1.72024,0.4826 -2.77803,0.62523 -1.26559,0.17064 -1.55788,0.13898 -0.85477,-0.0926 z m 69.0232,-0.29768 -2.99172,-0.56608 2.70019,0.21384 c 1.48511,0.11761 3.11987,0.38295 3.6328,0.58964 1.26912,0.51138 0.22342,0.43708 -3.34127,-0.2374 z m -49.14965,-1.04218 c 0.36467,-0.70519 0.7592,-1.28217 0.87673,-1.28217 0.11753,0 -0.0847,0.57698 -0.44934,1.28217 -0.36467,0.70519 -0.7592,1.28216 -0.87673,1.28216 -0.11753,0 0.0847,-0.57697 0.44934,-1.28216 z m 41.78308,0.1207 c 0.64966,-0.0982 1.61128,-0.0956 2.13694,0.006 0.52566,0.10145 -0.006,0.18182 -1.18119,0.17862 -1.17532,-0.003 -1.60541,-0.0862 -0.95575,-0.18445 z m -4.06606,-0.40375 c 0.29383,-0.11857 0.77464,-0.11857 1.06847,0 0.29383,0.11856 0.0534,0.21556 -0.53424,0.21556 -0.58766,0 -0.82806,-0.097 -0.53423,-0.21556 z m -3.41911,-0.81619 c -1.65708,-0.89897 -1.4694,-1.20922 0.21369,-0.35324 1.61105,0.81933 1.89618,1.03168 1.3534,1.00798 -0.21547,-0.009 -0.92067,-0.30404 -1.56709,-0.65474 z m -45.19631,0.16631 c 0.11753,-0.10666 1.27148,-1.13599 2.56433,-2.28739 2.3173,-2.06378 2.32639,-2.06743 0.64108,-0.25752 -0.94025,1.00977 -2.0942,2.0391 -2.56433,2.2874 -0.47012,0.24829 -0.75861,0.36418 -0.64108,0.25751 z m 40.69489,-3.23411 c -1.02225,-0.99902 -1.03929,-1.04806 -0.11359,-0.32694 1.82403,1.42091 1.91114,1.50226 1.60867,1.50226 -0.16084,0 -0.83363,-0.52889 -1.49508,-1.17532 z m -35.14804,-2.65825 c 0.49707,-0.69808 1.12204,-1.40414 1.38881,-1.56901 0.26676,-0.16487 -0.0535,0.40629 -0.71171,1.26924 -1.42862,1.87302 -1.96712,2.11142 -0.6771,0.29977 z m 31.93264,0.18726 c -0.65953,-0.58023 -1.02963,-1.05496 -0.82243,-1.05496 0.2072,0 0.82842,0.48081 1.3805,1.06847 1.2773,1.35962 0.99496,1.35279 -0.55807,-0.0135 z m -3.28843,-2.82878 c -0.82272,-0.72142 -1.10906,-1.11607 -0.6363,-0.87699 0.78064,0.39478 2.71647,2.24732 2.30525,2.20605 -0.0952,-0.01 -0.84623,-0.60763 -1.66895,-1.32906 z m -25.00221,-1.64529 c 1.15764,-1.17532 2.20097,-2.13694 2.3185,-2.13694 0.11753,0 -0.73347,0.96162 -1.89111,2.13694 -1.15765,1.17532 -2.20097,2.13694 -2.31851,2.13694 -0.11753,0 0.73347,-0.96162 1.89112,-2.13694 z m 35.01895,0.74793 -1.25528,-1.38901 1.38901,1.25528 c 1.29476,1.17009 1.58546,1.52274 1.25528,1.52274 -0.0735,0 -0.69861,-0.62505 -1.38901,-1.38901 z m 9.64312,1.22765 c 0,-0.0888 0.33657,-0.42532 0.74793,-0.74793 0.67786,-0.53162 0.69298,-0.5165 0.16136,0.16136 -0.55832,0.71192 -0.90929,0.93833 -0.90929,0.58657 z m -54.06461,-1.97558 c 0.42546,-0.47013 0.86972,-0.85478 0.98725,-0.85478 0.11754,0 -0.13441,0.38465 -0.55986,0.85478 -0.42546,0.47013 -0.86973,0.85478 -0.98726,0.85478 -0.11753,0 0.13441,-0.38465 0.55987,-0.85478 z m 30.98565,-0.89296 c -0.70969,-0.58049 -0.78144,-0.72562 -0.2137,-0.4322 1.39404,0.72046 2.16689,1.31228 1.70955,1.30911 -0.23506,-0.002 -0.9082,-0.39624 -1.49585,-0.87691 z m -45.10704,-2.12719 c -0.15494,-0.2507 -0.19005,-0.54749 -0.078,-0.65952 0.11203,-0.11203 0.31758,0.0931 0.45677,0.45583 0.289,0.7531 0.0427,0.88557 -0.37875,0.20369 z m 27.77265,-0.19113 c 0.45629,-0.34937 1.08135,-0.63521 1.38901,-0.63521 0.95306,0 0.62072,0.32331 -0.82961,0.80709 -1.27079,0.42389 -1.3184,0.40926 -0.5594,-0.17188 z m 12.20573,0.006 c -0.82273,-0.31683 -1.20737,-0.58201 -0.85478,-0.58929 0.3526,-0.007 1.21806,0.25095 1.92325,0.57385 1.6506,0.7558 0.88285,0.76689 -1.06847,0.0154 z m -23.26519,-1.19375 c 0.1605,-0.4215 0.39948,-0.6587 0.53107,-0.52712 0.13159,0.13159 2.7e-4,0.47645 -0.29182,0.76637 -0.42209,0.41895 -0.47118,0.36986 -0.23925,-0.23925 z m 13.78251,0.26071 c 0.30852,-0.12346 0.67714,-0.10828 0.81916,0.0337 0.14202,0.14202 -0.11041,0.24303 -0.56095,0.22447 -0.49788,-0.0205 -0.59915,-0.12178 -0.25821,-0.25821 z m 6.38411,0.009 c 0.29383,-0.11856 0.77464,-0.11856 1.06847,0 0.29383,0.11856 0.0534,0.21557 -0.53423,0.21557 -0.58766,0 -0.82807,-0.097 -0.53424,-0.21557 z m 36.89598,-4.24014 c 0.0205,-0.49788 0.12178,-0.59916 0.25821,-0.25822 0.12346,0.30853 0.10828,0.67715 -0.0337,0.81917 -0.14201,0.14201 -0.24303,-0.11041 -0.22447,-0.56095 z m -20.05351,-1.46027 c 0,-0.58766 0.097,-0.82806 0.21557,-0.53423 0.11857,0.29383 0.11857,0.77464 0,1.06847 -0.11856,0.29383 -0.21557,0.0534 -0.21557,-0.53424 z m -55.97202,-1.49586 c 0.009,-0.70519 0.10449,-0.94193 0.21286,-0.5261 0.10836,0.41584 0.10123,0.99281 -0.0159,1.28217 -0.11707,0.28935 -0.20573,-0.0509 -0.19702,-0.75607 z m 55.54464,-1.06847 c 0,-0.58766 0.097,-0.82806 0.21556,-0.53423 0.11857,0.29383 0.11857,0.77464 0,1.06847 -0.11856,0.29383 -0.21556,0.0534 -0.21556,-0.53424 z m -34.61845,-0.42739 c 0,-0.58766 0.097,-0.82806 0.21556,-0.53423 0.11857,0.29383 0.11857,0.77464 0,1.06847 -0.11856,0.29383 -0.21556,0.0534 -0.21556,-0.53424 z m -21.31466,-2.77802 c 0.003,-1.17532 0.0862,-1.6054 0.18445,-0.95575 0.0982,0.64966 0.0956,1.61128 -0.006,2.13694 -0.10145,0.52566 -0.18183,-0.006 -0.17862,-1.18119 z m 77.35144,-0.21369 c 0,-1.05779 0.0834,-1.49052 0.18522,-0.96163 0.10187,0.52889 0.10187,1.39436 0,1.92325 -0.10187,0.52889 -0.18522,0.0962 -0.18522,-0.96162 z m -56.03678,-2.56433 c 0,-0.58766 0.097,-0.82807 0.21556,-0.53424 0.11857,0.29383 0.11857,0.77464 0,1.06847 -0.11856,0.29383 -0.21556,0.0534 -0.21556,-0.53423 z m 34.63428,-0.64109 c 0.009,-0.70519 0.1045,-0.94193 0.21286,-0.5261 0.10836,0.41584 0.10123,0.99281 -0.0158,1.28217 -0.11707,0.28935 -0.20573,-0.0509 -0.19702,-0.75607 z m -55.56047,-1.28216 c 0.009,-0.70519 0.10449,-0.94194 0.21286,-0.5261 0.10836,0.41583 0.10123,0.99281 -0.0159,1.28216 -0.11707,0.28936 -0.20573,-0.0509 -0.19702,-0.75606 z m 76.45292,-0.89039 c 0.0205,-0.49789 0.12178,-0.59916 0.25821,-0.25822 0.12346,0.30852 0.10828,0.67715 -0.0337,0.81916 -0.14202,0.14202 -0.24303,-0.11041 -0.22447,-0.56094 z m -20.4809,-0.60547 c 0,-0.58766 0.097,-0.82806 0.21557,-0.53423 0.11857,0.29382 0.11857,0.77464 0,1.06847 -0.11856,0.29383 -0.21557,0.0534 -0.21557,-0.53424 z m 7.99838,0.10685 c -0.53161,-0.67786 -0.5165,-0.69298 0.16137,-0.16136 0.71192,0.55832 0.93832,0.90929 0.58656,0.90929 -0.0888,0 -0.42532,-0.33657 -0.74793,-0.74793 z m 12.05513,-1.21094 c 0.0205,-0.49788 0.12178,-0.59915 0.25821,-0.25821 0.12346,0.30852 0.10828,0.67714 -0.0337,0.81916 -0.14201,0.14202 -0.24303,-0.11041 -0.22447,-0.56095 z m -19.65702,-0.60546 c -0.0129,-0.3526 0.16294,-0.92957 0.39081,-1.28217 0.50488,-0.78125 0.50488,-0.10645 0,1.06847 -0.2422,0.56362 -0.37532,0.63641 -0.39081,0.2137 z m -40.87905,-9.082 -1.25527,-1.38902 1.38901,1.25528 c 1.29475,1.1701 1.58546,1.52275 1.25528,1.52275 -0.0736,0 -0.69861,-0.62506 -1.38902,-1.38901 z m 44.68896,0.80026 c 0,-0.0888 0.33657,-0.42532 0.74793,-0.74793 0.67786,-0.53162 0.69298,-0.5165 0.16137,0.16136 -0.55833,0.71192 -0.9093,0.93832 -0.9093,0.58657 z m -54.27831,-1.28217 c 0,-0.0888 0.33657,-0.42532 0.74793,-0.74793 0.67787,-0.53161 0.69298,-0.5165 0.16137,0.16137 -0.55833,0.71192 -0.9093,0.93832 -0.9093,0.58656 z m 64.05373,-0.58656 c -0.53162,-0.67787 -0.5165,-0.69298 0.16136,-0.16137 0.41136,0.32261 0.74793,0.65918 0.74793,0.74793 0,0.35176 -0.35096,0.12536 -0.90929,-0.58656 z m -58.57781,-1.25358 c 0.30852,-0.12346 0.67714,-0.10828 0.81916,0.0337 0.14201,0.14201 -0.11041,0.24303 -0.56095,0.22447 -0.49788,-0.0205 -0.59915,-0.12178 -0.25821,-0.25821 z"
     id="path3" /><path
     style="fill:#1f0503;stroke:#000000"
     d="m 285.71612,448.84262 c -3.2694,-3.01363 -4.93564,-6.88016 -5.71021,-13.25059 -0.946,-7.78039 1.02027,-15.87299 4.84136,-19.92563 1.81431,-1.92424 3.29674,-2.63471 5.49748,-2.63471 3.54036,0 6.68945,3.2724 8.75341,9.09617 1.60864,4.539 1.87554,12.40972 0.58912,17.37254 -1.06364,4.10333 -2.068,6.23468 -3.9458,8.37338 -1.80833,2.05957 -3.31993,2.76808 -5.9057,2.76808 -1.95297,0 -2.36108,-0.17824 -4.11966,-1.79924 z m 1.81042,-10.92211 c 0.26424,-0.17269 0.88858,-0.98713 1.38741,-1.80985 2.13035,-3.51361 0.45987,-10.68471 -2.48897,-10.68471 -2.59573,0 -4.28846,3.94611 -3.61608,8.42984 0.45562,3.0383 2.97144,5.20594 4.71764,4.06472 z m 55.08002,11.92183 c -4.61983,-2.86926 -7.42073,-10.85727 -6.91017,-19.70741 0.46945,-8.13766 2.86297,-13.6761 6.94772,-16.07654 5.35407,-3.14637 10.49261,1.09129 12.85257,10.59929 0.91889,3.70207 1.05745,5.04594 0.87239,8.46126 -0.40144,7.40869 -2.7491,13.3883 -6.33436,16.13391 -1.49736,1.14668 -2.19169,1.38873 -3.97989,1.38741 -1.36703,-0.001 -2.63908,-0.29536 -3.44826,-0.79792 z m 1.69264,-12.68535 c 1.47885,-1.59571 2.15961,-4.8517 1.53391,-7.33655 -1.28139,-5.08886 -4.29019,-5.94151 -6.45816,-1.83016 -0.79436,1.50643 -0.68748,6.32705 0.17736,7.99946 1.26779,2.45163 3.13178,2.90998 4.74689,1.16725 z"
     id="path1"
     sodipodi:nodetypes="sssssssssssssssssssssssssss" /><path
     style="fill:#800000;fill-opacity:1;stroke:#800000;stroke-width:2;stroke-dasharray:none;stroke-opacity:1"
     d="m 308.62919,498.72493 c -16.02286,-2.13292 -28.72978,-7.6584 -34.13278,-14.8423 -3.41732,-4.54372 -4.44491,-10.84412 -2.46289,-15.10054 1.93852,-4.163 6.1088,-6.49641 14.79887,-8.28046 9.38705,-1.92713 10.98606,-2.81608 15.38564,-8.55341 5.13835,-6.70073 7.77171,-8.30524 13.67676,-8.33327 2.71092,-0.0129 4.35648,0.23185 6.48458,0.96434 2.55555,0.87961 7.23397,3.77475 9.54926,5.90934 2.48245,2.28871 5.8322,4.87212 8.1136,6.25742 2.20074,1.33631 3.14001,1.62053 6.62452,2.00452 13.4999,1.48766 15.25198,1.85239 18.30297,3.81021 3.85241,2.47209 5.37409,5.37666 5.39884,10.30527 0.0162,3.23196 -0.11454,3.85867 -1.18505,5.67988 -1.79365,3.05142 -3.35067,4.64888 -6.76203,6.93765 -6.91063,4.63654 -20.5443,9.23382 -34.80041,11.73473 -13.95136,2.44745 -12.68117,2.34669 -18.99188,1.50662 z M 322.733,489.0956 c 6.66562,-0.95504 21.62547,-4.45006 24.78852,-5.79125 3.17473,-1.34614 3.63199,-1.6968 3.77053,-2.89149 0.31681,-2.73197 -2.44301,-3.16854 -6.97594,-1.10351 -0.47013,0.21417 -2.5857,0.78247 -4.70127,1.26289 -2.11557,0.48041 -4.23114,1.05553 -4.70127,1.27804 -1.07711,0.50979 -10.16882,2.12786 -11.95614,2.12786 -0.7346,0 -1.56408,0.22845 -1.84329,0.50766 -0.68088,0.68088 -16.62118,0.7596 -18.08192,0.0893 -0.56515,-0.25933 -2.36462,-0.79313 -3.99883,-1.18621 -3.09954,-0.74556 -6.23524,-2.47177 -7.83757,-4.31462 -1.01285,-1.16488 -2.96507,-1.45219 -3.85056,-0.5667 -0.95692,0.95692 -0.57895,2.83529 0.87614,4.3541 3.00356,3.13509 9.45728,5.86589 15.71279,6.64865 3.54978,0.44418 14.48846,0.20287 18.79881,-0.41472 z m -27.13915,-16.09305 c 1.88051,-0.3598 3.89992,-0.91245 4.48758,-1.22811 0.58765,-0.31565 1.97544,-0.95475 3.08396,-1.42021 2.42794,-1.01949 2.74911,-1.25932 6.14738,-4.5905 1.84106,-1.80472 2.83343,-3.16891 3.20334,-4.40354 0.68078,-2.27227 0.15403,-3.92969 -1.42546,-4.48517 -1.64945,-0.58008 -3.18469,0.37585 -4.38274,2.72895 -0.5422,1.06496 -1.43759,2.33979 -1.98976,2.83296 -2.61376,2.33453 -7.72552,4.41471 -14.02181,5.70604 -2.7325,0.56041 -3.86649,1.43438 -3.85741,2.97292 0.009,1.52337 0.49291,2.15644 1.9453,2.54487 1.3374,0.35768 1.66621,0.3259 6.80962,-0.65821 z"
     id="path2"
     sodipodi:nodetypes="sssssssssssssssssssssssssssssssssssssssssss" /><path
     style="fill:#ffffff;fill-opacity:1;stroke:none;stroke-width:2;stroke-dasharray:none;stroke-opacity:1"
     d="m 295.59385,473.00255 c 1.88051,-0.3598 3.89992,-0.91245 4.48758,-1.22811 0.58765,-0.31565 1.97544,-0.95475 3.08396,-1.42021 2.42794,-1.01949 2.74911,-1.25932 6.14738,-4.5905 1.84106,-1.80472 2.83343,-3.16891 3.20334,-4.40354 0.68078,-2.27227 0.15403,-3.92969 -1.42546,-4.48517 -1.64945,-0.58008 -3.18469,0.37585 -4.38274,2.72895 -0.5422,1.06496 -1.43759,2.33979 -1.98976,2.83296 -2.61376,2.33453 -7.72552,4.41471 -14.02181,5.70604 -2.7325,0.56041 -3.86649,1.43438 -3.85741,2.97292 0.009,1.52337 0.49291,2.15644 1.9453,2.54487 1.3374,0.35768 1.66621,0.3259 6.80962,-0.65821 z"
     id="path9" /><path
     style="fill:#000000;fill-opacity:1;stroke:none;stroke-width:2;stroke-dasharray:none;stroke-opacity:1"
     d="m 322.733,489.0956 c 8.08943,-1.36777 16.15113,-3.07006 23.98239,-5.52216 2.37503,-0.30769 6.61834,-3.06645 3.45857,-5.32608 -2.83633,-0.86856 -5.43844,1.22404 -8.15247,1.74351 -3.10512,0.73447 -6.19904,1.52246 -9.25606,2.41839 -6.50318,1.39847 -12.94531,2.28866 -19.54951,2.60252 -4.23932,3.3e-4 -8.63111,0.31709 -12.66871,-1.21233 -3.37388,-0.85154 -6.86431,-1.99448 -9.27494,-4.64999 -1.81531,-2.66244 -6.0756,-0.18553 -3.90127,2.58899 1.54141,2.4123 4.26615,3.71778 6.73502,5.00046 5.06875,2.40653 10.7427,3.14803 16.30555,2.99503 4.11436,0.006 8.23194,-0.17619 12.32143,-0.63834 z"
     id="path7"
     sodipodi:nodetypes="cccccccccccc" /><path
     style="fill:none;fill-opacity:1;stroke:#000000;stroke-width:3;stroke-dasharray:none;stroke-opacity:1"
     d="m 308.62919,498.72493 c -16.02286,-2.13292 -28.72978,-7.6584 -34.13278,-14.8423 -3.41732,-4.54372 -4.44491,-10.84412 -2.46289,-15.10054 1.93852,-4.163 6.1088,-6.49641 14.79887,-8.28046 9.38705,-1.92713 10.98606,-2.81608 15.38564,-8.55341 5.13835,-6.70073 7.77171,-8.30524 13.67676,-8.33327 2.71092,-0.0129 4.35648,0.23185 6.48458,0.96434 2.55555,0.87961 7.23397,3.77475 9.54926,5.90934 2.48245,2.28871 5.8322,4.87212 8.1136,6.25742 2.20074,1.33631 3.14001,1.62053 6.62452,2.00452 13.4999,1.48766 15.25198,1.85239 18.30297,3.81021 3.85241,2.47209 5.37409,5.37666 5.39884,10.30527 0.0162,3.23196 -0.11454,3.85867 -1.18505,5.67988 -1.79365,3.05142 -3.35067,4.64888 -6.76203,6.93765 -6.91063,4.63654 -20.5443,9.23382 -34.80041,11.73473 -13.95136,2.44745 -12.68117,2.34669 -18.99188,1.50662 z"
     id="path10"
     sodipodi:nodetypes="ssssssssssssssss" /></g></svg>
