<?xml version="1.0" encoding="UTF-8" standalone="no"?>
<!-- Generator: Adobe Illustrator 28.3.0, SVG Export Plug-In . SVG Version: 6.00 Build 0)  -->

<svg
   version="1.1"
   id="Layer_1"
   x="0px"
   y="0px"
   viewBox="0 0 280 280"
   xml:space="preserve"
   sodipodi:docname="piece-yeti.svg"
   width="280"
   height="280"
   inkscape:version="1.4 (1:1.4+202410161351+e7c3feb100)"
   inkscape:export-filename="piece-yeti.png"
   inkscape:export-xdpi="51.42857"
   inkscape:export-ydpi="51.42857"
   xmlns:inkscape="http://www.inkscape.org/namespaces/inkscape"
   xmlns:sodipodi="http://sodipodi.sourceforge.net/DTD/sodipodi-0.dtd"
   xmlns="http://www.w3.org/2000/svg"
   xmlns:svg="http://www.w3.org/2000/svg"><defs
   id="defs4" /><sodipodi:namedview
   id="namedview4"
   pagecolor="#ffffff"
   bordercolor="#000000"
   borderopacity="0.25"
   inkscape:showpageshadow="2"
   inkscape:pageopacity="0.0"
   inkscape:pagecheckerboard="0"
   inkscape:deskcolor="#d1d1d1"
   inkscape:zoom="1.1610693"
   inkscape:cx="236.42"
   inkscape:cy="270.44036"
   inkscape:window-width="1920"
   inkscape:window-height="1128"
   inkscape:window-x="0"
   inkscape:window-y="0"
   inkscape:window-maximized="1"
   inkscape:current-layer="Layer_1" />
<style
   type="text/css"
   id="style1">
	.st0{fill:#0DC09D;}
</style>



<g
   id="g4"
   transform="translate(-109.5,-110.45)"><path
     class="st0"
     d="m 124.5,171.5 c 39.4,2.6 71.1,34.3 73.5,73.8 h 46.1 c -2.6,-65 -54.7,-117.2 -119.6,-119.9 z"
     id="path1" /><path
     class="st0"
     d="m 198.3,255.8 c -2.6,39.4 -34.3,71.1 -73.8,73.5 v 46.1 c 65,-2.6 117.2,-54.7 119.9,-119.6 z"
     id="path2" /><path
     class="st0"
     d="m 300.7,245 c 2.6,-39.5 34.3,-71.1 73.8,-73.5 V 125.4 C 309.5,128 257.3,180.1 254.6,245 Z"
     id="path3" /><path
     class="st0"
     d="M 374.5,329.4 C 335.1,326.8 303.4,295.1 301,255.6 h -46.1 c 2.6,65 54.7,117.2 119.6,119.9 z"
     id="path4" /></g>
</svg>
