<?xml version="1.0" encoding="UTF-8" standalone="no"?>
<svg
   viewBox="0 0 280 280"
   version="1.1"
   id="svg10"
   sodipodi:docname="special-column.svg"
   width="280"
   height="280"
   inkscape:version="1.4 (1:1.4+202410161351+e7c3feb100)"
   inkscape:export-filename="special-column.png"
   inkscape:export-xdpi="96"
   inkscape:export-ydpi="96"
   xmlns:inkscape="http://www.inkscape.org/namespaces/inkscape"
   xmlns:sodipodi="http://sodipodi.sourceforge.net/DTD/sodipodi-0.dtd"
   xmlns="http://www.w3.org/2000/svg"
   xmlns:svg="http://www.w3.org/2000/svg">
  <sodipodi:namedview
     id="namedview10"
     pagecolor="#ffffff"
     bordercolor="#000000"
     borderopacity="0.25"
     inkscape:showpageshadow="2"
     inkscape:pageopacity="0.0"
     inkscape:pagecheckerboard="0"
     inkscape:deskcolor="#d1d1d1"
     inkscape:zoom="0.80184345"
     inkscape:cx="-106.62929"
     inkscape:cy="-4.9885049"
     inkscape:window-width="1920"
     inkscape:window-height="1128"
     inkscape:window-x="0"
     inkscape:window-y="0"
     inkscape:window-maximized="1"
     inkscape:current-layer="svg10" />
  <defs
     id="defs1">
    <style
       id="style1">.cls-1{fill:#ea4335;}.cls-2{fill:#4285f4;}.cls-3{fill:#34a853;}.cls-4{fill:#fbbc05;}.cls-5{fill:#5f6368;}</style>
  </defs>
  <g
     id="g2"
     style="display:inline"
     transform="matrix(2.8904436,0,0,2.8904436,-29.618629,22.160186)">
    <path
       inkscape:connector-curvature="0"
       id="path685-6"
       style="fill:#ffffff;stroke:none;stroke-width:3.01842;stroke-linecap:butt;stroke-linejoin:miter;stroke-miterlimit:10;stroke-dasharray:none;stroke-opacity:1"
       d="m 100.42371,40.737998 c 0,-23.050353 -18.686065,-41.73674603 -41.736759,-41.73674603 -23.050353,0 -41.736736,18.68639303 -41.736736,41.73674603 0,23.050354 18.686383,41.736747 41.736736,41.736747 23.050694,0 41.736759,-18.686393 41.736759,-41.736747 z" />
    <path
       inkscape:connector-curvature="0"
       id="path687-1"
       d="m 48.113373,21.415287 -2.78734,1.206425 -3.522179,22.183264 -7.746821,2.11302 v 27.466543 l -0.02389,0.0338 c 6.907826,5.064918 15.431897,8.056536 24.653847,8.056536 18.436869,0 34.081475,-11.954488 39.605527,-28.535017 l 0.06895,0.02253 -0.06468,-0.03797 c 1.37921,-4.14496 2.127103,-8.578154 2.127103,-13.186356 0,-2.530444 -0.22471,-5.007165 -0.656014,-7.413187 z"
       style="fill:#b3deb2;fill-opacity:1;fill-rule:nonzero;stroke:none;stroke-width:0.720766" />
    <path
       d="M 98.361157,53.962743 45.325441,22.62179 l -3.52116,22.18373 -7.746617,2.112894 v 27.465649 l -0.02418,0.03448 c 6.907826,5.064908 15.431519,8.056167 24.653478,8.056167 18.436869,0 34.081348,-11.954293 39.605401,-28.534833"
       style="fill:#24af63;fill-opacity:1;fill-rule:nonzero;stroke:none;stroke-width:0.720766"
       id="path689-4"
       inkscape:connector-curvature="0" />
    <path
       d="m 100.41506,40.768764 c 0,-23.048023 -18.684145,-41.73250253 -41.732498,-41.73250253 -23.048014,0 -41.732503,18.68447953 -41.732503,41.73250253 0,23.048013 18.684489,41.732503 41.732503,41.732503 23.048353,0 41.732498,-18.68449 41.732498,-41.732503 z"
       style="fill:none;stroke:#000000;stroke-width:3.02691;stroke-linecap:butt;stroke-linejoin:miter;stroke-miterlimit:10;stroke-dasharray:none;stroke-opacity:1"
       id="path691-0"
       inkscape:connector-curvature="0" />
  </g>
</svg>
