<?xml version="1.0" encoding="UTF-8" standalone="no"?>
<svg
   width="280"
   height="280"
   viewBox="0 0 179.2 179.2"
   version="1.1"
   id="svg12"
   sodipodi:docname="special-row.svg"
   inkscape:version="1.4 (1:1.4+202410161351+e7c3feb100)"
   inkscape:export-filename="special-row.png"
   inkscape:export-xdpi="51.42857"
   inkscape:export-ydpi="51.42857"
   xml:space="preserve"
   xmlns:inkscape="http://www.inkscape.org/namespaces/inkscape"
   xmlns:sodipodi="http://sodipodi.sourceforge.net/DTD/sodipodi-0.dtd"
   xmlns="http://www.w3.org/2000/svg"
   xmlns:svg="http://www.w3.org/2000/svg"><sodipodi:namedview
     id="namedview12"
     pagecolor="#ffffff"
     bordercolor="#000000"
     borderopacity="0.25"
     inkscape:showpageshadow="2"
     inkscape:pageopacity="0.0"
     inkscape:pagecheckerboard="0"
     inkscape:deskcolor="#d1d1d1"
     inkscape:zoom="1.9351155"
     inkscape:cx="116.53051"
     inkscape:cy="114.72183"
     inkscape:window-width="1920"
     inkscape:window-height="1128"
     inkscape:window-x="0"
     inkscape:window-y="0"
     inkscape:window-maximized="1"
     inkscape:current-layer="svg12" /><defs
     id="defs9"><linearGradient
       id="e399c19f-b68f-429d-b176-18c2117ff73c"
       x1="-1032.172"
       x2="-1059.213"
       y1="145.312"
       y2="65.426003"
       gradientTransform="matrix(1,0,0,-1,1075,158)"
       gradientUnits="userSpaceOnUse"><stop
         offset="0"
         stop-color="#114a8b"
         id="stop1" /><stop
         offset="1"
         stop-color="#0669bc"
         id="stop2" /></linearGradient><linearGradient
       id="ac2a6fc2-ca48-4327-9a3c-d4dcc3256e15"
       x1="-1023.725"
       x2="-1029.98"
       y1="108.083"
       y2="105.968"
       gradientTransform="matrix(1,0,0,-1,1075,158)"
       gradientUnits="userSpaceOnUse"><stop
         offset="0"
         stop-opacity=".3"
         id="stop3" /><stop
         offset=".071"
         stop-opacity=".2"
         id="stop4" /><stop
         offset=".321"
         stop-opacity=".1"
         id="stop5" /><stop
         offset=".623"
         stop-opacity=".05"
         id="stop6" /><stop
         offset="1"
         stop-opacity="0"
         id="stop7" /></linearGradient><linearGradient
       id="a7fee970-a784-4bb1-af8d-63d18e5f7db9"
       x1="-1027.165"
       x2="-997.48199"
       y1="147.642"
       y2="68.560997"
       gradientTransform="matrix(1,0,0,-1,1075,158)"
       gradientUnits="userSpaceOnUse"><stop
         offset="0"
         stop-color="#3ccbf4"
         id="stop8" /><stop
         offset="1"
         stop-color="#2892df"
         id="stop9" /></linearGradient></defs><path
     id="path1"
     style="stroke-width:0.597015;fill:#ffffff"
     d="m 89.6,10.79375 c -0.0991,0 -0.197948,0.02444 -0.2875,0.07375 l -71.045,39.105 c -0.190687,0.104955 -0.30875,0.304829 -0.30875,0.5225 v 78.21 c 0,0.21791 0.118063,0.41742 0.30875,0.5225 l 71.045,39.105 c 0.179104,0.0985 0.395896,0.0985 0.575,0 l 71.045,-39.105 c 0.19105,-0.10508 0.30875,-0.30459 0.30875,-0.5225 v -78.21 c 0,-0.217671 -0.1177,-0.417545 -0.30875,-0.5225 L 89.8875,10.8675 C 89.797948,10.818185 89.699104,10.79375 89.6,10.79375 Z"
     sodipodi:nodetypes="sccssccccssccs" /><path
     fill-rule="evenodd"
     clip-rule="evenodd"
     d="m 89.312239,10.867985 c 0.179104,-0.09863 0.396418,-0.09863 0.575522,0 l 71.044779,39.104482 c 0.19105,0.104955 0.30926,0.305373 0.30926,0.523044 v 78.208959 c 0,0.21791 -0.11821,0.41791 -0.30926,0.52299 l -71.044779,39.10448 c -0.179104,0.0985 -0.396418,0.0985 -0.575522,0 L 18.267337,129.22746 c -0.190687,-0.10508 -0.309135,-0.30508 -0.309135,-0.52299 V 50.495511 c 0,-0.217671 0.118448,-0.418089 0.309135,-0.523044 z M 19.152232,50.848407 V 128.35164 L 89.6,167.12776 160.04777,128.35164 V 50.848407 L 89.6,12.072523 Z"
     fill="#160f26"
     id="path2"
     style="stroke-width:0.597015" /><path
     fill-rule="evenodd"
     clip-rule="evenodd"
     d="M 27.510442,126.37791 V 52.179989 L 89.6,11.988045 89.157015,11.066194 21.18483,49.259571 l -2.032598,0.65797 v 79.364839 l 1.635284,0.52956 68.369499,38.41672 L 89.6,167.30687 Z"
     fill="#160f26"
     id="path3"
     style="stroke-width:0.597015" /><path
     d="m 102.17433,109.96656 h 0.11582 c 0.3606,-1.15463 1.28478,-1.89074 2.48299,-1.89074 1.57313,0 2.26626,1.01074 2.26626,2.48298 v 4.38806 h -0.99641 v -4.17194 c 0,-1.01015 -0.40418,-1.78985 -1.61672,-1.78985 -1.34209,0 -2.23702,0.83761 -2.23702,2.09313 v 3.86866 h -0.99641 v -6.71224 h 0.98149 z"
     fill="#160f26"
     id="path5"
     style="stroke-width:0.597015" /><path
     d="m 96.411344,115.10567 c -2.121791,0 -3.32,-1.35702 -3.32,-3.53672 0,-2.19403 1.327761,-3.49313 3.32,-3.49313 1.991642,0 3.32,1.2991 3.32,3.49313 0,2.1797 -1.212537,3.53672 -3.32,3.53672 z m 0,-6.14926 c -1.501493,0 -2.324179,0.98149 -2.324179,2.59821 0,1.61672 0.750447,2.67045 2.309851,2.67045 1.558806,0 2.33791,-1.05373 2.33791,-2.67045 0,-1.61672 -0.822686,-2.59821 -2.323582,-2.59821 z"
     fill="#160f26"
     id="path6"
     style="stroke-width:0.597015" /><path
     d="m 91.479403,114.94686 h -0.995821 v -6.71224 h 0.995821 z m 0.115821,-8.14149 h -1.227463 v -1.01015 h 1.227463 z"
     fill="#160f26"
     id="path7"
     style="stroke-width:0.597015" /><path
     d="m 84.642985,108.23462 h 1.096716 v -1.93433 h 0.981493 v 1.93433 h 2.280597 v 0.85194 h -2.280597 v 3.82508 c 0,0.83701 0.33194,1.27044 1.140298,1.27044 0.375523,0 0.663881,-0.0579 1.06806,-0.17373 l 0.144478,0.8806 c -0.447164,0.14448 -0.822687,0.21672 -1.385672,0.21672 -1.34209,0 -1.948657,-0.8806 -1.948657,-2.12179 v -3.89732 h -1.096716 z"
     fill="#160f26"
     id="path8"
     style="stroke-width:0.597015" /><path
     d="m 79.98985,115.09134 c -1.31403,0 -2.122388,-0.56299 -2.122388,-1.84776 0,-1.11165 0.751044,-1.96299 2.352836,-1.96299 h 2.309851 v -0.62089 c 0,-1.11165 -0.432836,-1.73194 -1.645374,-1.73194 -1.010746,0 -1.573731,0.50507 -1.804776,1.48656 l -0.952239,-0.24537 c 0.302687,-1.31343 1.255523,-2.07881 2.771344,-2.07881 1.818507,0 2.612537,0.89493 2.612537,2.55523 v 4.30149 h -0.93791 v -1.60239 H 82.45791 c -0.346269,1.1403 -1.241194,1.74687 -2.46806,1.74687 z m 2.540299,-3.07463 h -2.19403 c -0.967165,0 -1.501493,0.38985 -1.501493,1.1403 0,0.57731 0.361194,1.11164 1.429254,1.11164 1.371343,0 2.266269,-0.76537 2.266269,-1.79045 z"
     fill="#160f26"
     id="path9-6"
     style="stroke-width:0.597015" /><path
     d="m 70.114028,111.61253 c 0,-2.2806 0.995821,-3.53671 2.684776,-3.53671 1.414926,0 2.179702,0.83701 2.497314,1.97791 h 0.08657 v -4.37374 h 0.981493 v 9.26687 h -0.981493 v -1.80418 h -0.08657 c -0.33194,1.12597 -1.183881,1.96299 -2.511642,1.96299 -1.703284,0 -2.670448,-1.2412 -2.670448,-3.49314 z m 5.268657,0.2597 v -0.5194 c 0,-1.41493 -0.866268,-2.36776 -2.208358,-2.36776 -1.385672,0 -2.078806,0.85194 -2.078806,2.62746 0,1.7612 0.66388,2.59821 2.078806,2.59821 1.34209,0 2.208358,-0.90925 2.208358,-2.33851 z"
     fill="#160f26"
     id="path10-7"
     style="stroke-width:0.597015" /><path
     d="m 63.860475,109.96656 h 0.115463 c 0.360896,-1.15463 1.284716,-1.89074 2.482567,-1.89074 1.573732,0 2.266269,1.01074 2.266269,2.48298 v 4.38806 h -0.995821 v -4.17194 c 0,-1.01015 -0.404179,-1.78985 -1.616716,-1.78985 -1.342389,0 -2.237314,0.83761 -2.237314,2.09313 v 3.86866 h -0.996 v -6.71224 h 0.981552 z"
     fill="#160f26"
     id="path11-5"
     style="stroke-width:0.597015" /><path
     d="m 59.988714,113.21492 h -0.115463 c -0.360896,1.15463 -1.270269,1.89075 -2.482806,1.89075 -1.573373,0 -2.266209,-1.01075 -2.266209,-2.48299 v -4.38806 h 0.99594 v 4.18627 c 0,0.99582 0.404179,1.77552 1.616717,1.77552 1.342447,0 2.237373,-0.83761 2.237373,-2.09313 v -3.86866 h 0.996 v 6.71224 h -0.981552 z"
     fill="#160f26"
     id="path12-3"
     style="stroke-width:0.597015" /><path
     d="m 50.414504,115.10567 c -2.121911,0 -3.32,-1.35702 -3.32,-3.53672 0,-2.19403 1.328,-3.49313 3.32,-3.49313 1.992,0 3.32,1.2991 3.32,3.49313 0,2.1797 -1.212478,3.53672 -3.32,3.53672 z m 0,-6.14926 c -1.501194,0 -2.324,0.98149 -2.324,2.59821 0,1.61672 0.750627,2.67045 2.309612,2.67045 1.558925,0 2.338388,-1.05373 2.338388,-2.67045 0,-1.61672 -0.822746,-2.59821 -2.324,-2.59821 z"
     fill="#160f26"
     id="path13"
     style="stroke-width:0.597015" /><path
     d="m 44.422623,107.78746 v 0.44716 h 2.222985 v 0.85194 h -2.222985 v 5.8603 H 43.44107 v -5.8603 h -1.299104 v -0.85194 h 1.299104 v -0.46209 c 0,-1.37134 0.707284,-2.26627 2.136359,-2.26627 0.490746,0 0.837194,0.0722 1.111463,0.13015 l -0.05773,0.7797 c -0.332,-0.0579 -0.620716,-0.10149 -0.938268,-0.10149 -0.923821,0 -1.270269,0.53433 -1.270269,1.47284 z"
     fill="#160f26"
     id="path14"
     style="stroke-width:0.597015" /><path
     d="m 91.942687,101.37432 c -2.078806,0 -3.320001,-1.2991 -3.320001,-3.493133 0,-2.223283 1.313433,-3.536716 3.291344,-3.536716 1.977314,0 2.987463,1.241194 2.987463,3.088955 0,0.173134 0,0.447761 -0.02866,0.707463 h -5.254329 c 0.08657,1.515821 0.880598,2.381491 2.32418,2.381491 1.327761,0 1.789851,-0.692536 2.035224,-1.544476 l 0.880597,0.259701 c -0.33194,1.328355 -1.226866,2.136715 -2.915821,2.136715 z m -2.309851,-3.998207 h 4.345075 C 93.92,95.975516 93.299702,95.167157 91.884776,95.167157 c -1.313433,0 -2.107463,0.751045 -2.25194,2.208956 z"
     fill="#160f26"
     id="path15"
     style="stroke-width:0.597015" /><path
     d="m 85.427462,96.307456 h 0.08657 c 0.317612,-1.299105 1.053732,-1.876418 2.136717,-1.876418 h 0.27403 v 1.082985 h -0.317612 c -1.486567,0 -2.150448,0.634627 -2.150448,2.251343 v 3.450154 h -0.996418 v -6.712243 h 0.967164 z"
     fill="#160f26"
     id="path16"
     style="stroke-width:0.597015" /><path
     d="m 79.087163,101.35999 c -1.313433,0 -2.121791,-0.56298 -2.121791,-1.847758 0,-1.111642 0.751045,-1.962985 2.352836,-1.962985 h 2.309851 v -0.620896 c 0,-1.111641 -0.432836,-1.73194 -1.645373,-1.73194 -1.010747,0 -1.573732,0.505075 -1.804777,1.486567 l -0.952836,-0.245373 c 0.303284,-1.313433 1.25612,-2.078806 2.771941,-2.078806 1.818508,0 2.612538,0.894925 2.612538,2.555224 v 4.301497 H 81.671044 V 99.613128 H 81.55582 c -0.346269,1.140302 -1.241194,1.746862 -2.468657,1.746862 z m 2.540896,-3.074624 h -2.19403 c -0.967164,0 -1.501493,0.389851 -1.501493,1.140299 0,0.577315 0.361194,1.111645 1.429254,1.111645 1.371344,0 2.266269,-0.765376 2.266269,-1.790451 z"
     fill="#160f26"
     id="path17"
     style="stroke-width:0.597015" /><path
     d="m 71.875819,94.503277 0.79403,2.598209 c 0.317612,1.053731 0.635224,2.165373 0.894926,3.277014 h 0.259701 c 0.260299,-1.125969 0.577911,-2.165372 0.924179,-3.319999 l 0.750448,-2.555224 h 1.010747 l -2.194031,6.712243 H 73.016715 L 72.121192,98.241784 C 71.818506,97.27462 71.573133,96.307456 71.356416,95.325963 h -0.201791 c -0.216716,0.981493 -0.476418,1.948657 -0.765373,2.915821 l -0.880597,2.973736 h -1.269851 l -2.208955,-6.712243 h 1.025074 l 0.779702,2.555224 c 0.374925,1.140298 0.706866,2.19403 0.966567,3.319999 h 0.260299 c 0.259701,-1.097313 0.577313,-2.223283 0.880597,-3.277014 l 0.779104,-2.598209 z"
     fill="#160f26"
     id="path18"
     style="stroke-width:0.597015" /><path
     d="m 61.158027,94.503277 h 1.097075 v -1.934329 h 0.981552 v 1.934329 h 2.280717 v 0.85194 h -2.280717 v 3.825075 c 0,0.837018 0.332,1.270448 1.140359,1.270448 0.375283,0 0.664,-0.0579 1.068179,-0.17373 l 0.144358,0.8806 c -0.447522,0.14447 -0.822806,0.21671 -1.385791,0.21671 -1.342388,0 -1.948657,-0.8806 -1.948657,-2.121789 v -3.897314 h -1.097075 z"
     fill="#160f26"
     id="path19"
     style="stroke-width:0.597015" /><path
     d="m 58.462684,94.056112 v 0.447165 h 2.222925 v 0.85194 h -2.222925 v 5.860303 h -0.981553 v -5.860303 h -1.299164 v -0.85194 h 1.299164 v -0.46209 c 0,-1.371343 0.707284,-2.266269 2.136359,-2.266269 0.490746,0 0.837194,0.07224 1.111463,0.130149 l -0.05773,0.779702 c -0.332,-0.05791 -0.620716,-0.101493 -0.938269,-0.101493 -0.92382,0 -1.270268,0.534329 -1.270268,1.472836 z"
     fill="#160f26"
     id="path20"
     style="stroke-width:0.597015" /><path
     d="m 52.204773,101.37432 c -2.121911,0 -3.320001,-1.35701 -3.320001,-3.536715 0,-2.19403 1.328001,-3.493134 3.320001,-3.493134 1.992,0 3.32,1.299104 3.32,3.493134 0,2.179705 -1.212537,3.536715 -3.32,3.536715 z m 0,-6.149252 c -1.501194,0 -2.324001,0.981492 -2.324001,2.598209 0,1.616716 0.750627,2.670443 2.309553,2.670443 1.558985,0 2.338448,-1.053727 2.338448,-2.670443 0,-1.616717 -0.822806,-2.598209 -2.324,-2.598209 z"
     fill="#160f26"
     id="path21"
     style="stroke-width:0.597015" /><path
     d="m 45.317608,101.38865 c -2.006448,0 -2.771523,-0.8806 -3.074627,-2.25194 l 0.923821,-0.187463 c 0.230985,0.923582 0.750627,1.631043 2.165194,1.631043 1.068179,0 1.602269,-0.40418 1.602269,-1.140297 0,-0.707462 -0.505194,-0.995821 -1.977553,-1.241194 -1.703283,-0.288955 -2.352836,-0.909851 -2.352836,-1.948657 0,-1.12597 0.837194,-1.905671 2.468299,-1.905671 1.688896,0 2.324,0.765373 2.627164,1.962985 l -0.923821,0.216716 c -0.245432,-1.025074 -0.779522,-1.385671 -1.717731,-1.385671 -0.981612,0 -1.486806,0.38985 -1.486806,1.068059 0,0.591642 0.418627,0.995821 1.775463,1.212538 1.847642,0.303283 2.569373,0.909254 2.569373,1.992239 0,1.168953 -0.779463,1.977313 -2.598209,1.977313 z"
     fill="#160f26"
     id="path22"
     style="stroke-width:0.597015" /><path
     d="m 85.148059,87.642977 c -2.078209,0 -3.32,-1.299104 -3.32,-3.493134 0,-2.223284 1.313433,-3.536717 3.291344,-3.536717 1.977313,0 2.98806,1.241194 2.98806,3.088956 0,0.173134 0,0.447761 -0.02925,0.707462 H 82.82388 c 0.08716,1.515821 0.880597,2.381493 2.324179,2.381493 1.328359,0 1.789851,-0.692537 2.035224,-1.544478 l 0.880597,0.259702 c -0.33194,1.328358 -1.226865,2.136716 -2.915821,2.136716 z m -2.309254,-3.998209 h 4.344478 c -0.05731,-1.400597 -0.678209,-2.208955 -2.093134,-2.208955 -1.313433,0 -2.107463,0.751045 -2.251344,2.208955 z"
     fill="#160f26"
     id="path23"
     style="stroke-width:0.597015" /><path
     d="m 79.839999,83.240589 c -0.245373,-1.082985 -0.779701,-1.732537 -2.093134,-1.732537 -1.414926,0 -2.280598,0.894925 -2.280598,2.627462 0,1.616717 0.822687,2.612538 2.323583,2.612538 1.400597,0 1.819104,-0.79403 2.093134,-1.775523 l 0.924179,0.245374 c -0.33194,1.530149 -1.256119,2.425074 -3.002388,2.425074 -2.107463,0 -3.349254,-1.299104 -3.349254,-3.507463 0,-2.208955 1.342687,-3.522388 3.305672,-3.522388 1.833433,0 2.71403,0.880597 3.016717,2.425075 z"
     fill="#160f26"
     id="path24"
     style="stroke-width:0.597015" /><path
     d="m 68.202386,82.503873 h 0.115224 c 0.361194,-1.154627 1.284776,-1.890747 2.482985,-1.890747 1.573135,0 2.266269,1.010746 2.266269,2.482985 v 4.38806 h -0.996418 v -4.17194 c 0,-1.01015 -0.404179,-1.789851 -1.616716,-1.789851 -1.34209,0 -2.237016,0.837612 -2.237016,2.093134 v 3.868657 h -0.995821 v -6.712239 h 0.981493 z"
     fill="#160f26"
     id="path25"
     style="stroke-width:0.597015" /><path
     d="m 62.791221,87.642977 c -2.078627,0 -3.32,-1.299104 -3.32,-3.493134 0,-2.223284 1.313552,-3.536717 3.291105,-3.536717 1.977612,0 2.98812,1.241194 2.98812,3.088956 0,0.173134 0,0.447761 -0.02925,0.707462 h -5.253971 c 0.08663,1.515821 0.880538,2.381493 2.324,2.381493 1.328001,0 1.789911,-0.692537 2.035284,-1.544478 l 0.880538,0.259702 c -0.332,1.328358 -1.226986,2.136716 -2.915822,2.136716 z m -2.309552,-3.998209 h 4.344836 c -0.05773,-1.400597 -0.678448,-2.208955 -2.093015,-2.208955 -1.313552,0 -2.107463,0.751045 -2.251821,2.208955 z"
     fill="#160f26"
     id="path26"
     style="stroke-width:0.597015" /><path
     d="m 57.85946,87.484171 h -0.996 v -6.712239 h 0.996 z m 0.115462,-8.141493 h -1.226925 v -1.010149 h 1.226925 z"
     fill="#160f26"
     id="path27"
     style="stroke-width:0.597015" /><path
     d="m 54.268952,83.240589 c -0.245433,-1.082985 -0.779463,-1.732537 -2.093075,-1.732537 -1.414567,0 -2.280657,0.894925 -2.280657,2.627462 0,1.616717 0.822747,2.612538 2.324,2.612538 1.40018,0 1.818747,-0.79403 2.093016,-1.775523 l 0.923821,0.245374 c -0.332,1.530149 -1.255821,2.425074 -3.002448,2.425074 -2.107463,0 -3.348837,-1.299104 -3.348837,-3.507463 0,-2.208955 1.342448,-3.522388 3.305553,-3.522388 1.833194,0 2.713732,0.880597 3.016896,2.425075 z"
     fill="#160f26"
     id="path28"
     style="stroke-width:0.597015" /><path
     d="m 45.317608,87.657306 c -2.006448,0 -2.771523,-0.880597 -3.074627,-2.251941 l 0.923821,-0.187462 c 0.230985,0.923582 0.750627,1.631045 2.165194,1.631045 1.068179,0 1.602269,-0.40418 1.602269,-1.140299 0,-0.707463 -0.505194,-0.995821 -1.977553,-1.241194 -1.703283,-0.288955 -2.352836,-0.909851 -2.352836,-1.948657 0,-1.12597 0.837194,-1.905672 2.468299,-1.905672 1.688896,0 2.324,0.765373 2.627164,1.962985 l -0.923821,0.216717 c -0.245432,-1.025075 -0.779522,-1.385672 -1.717731,-1.385672 -0.981612,0 -1.486806,0.389851 -1.486806,1.06806 0,0.591642 0.418627,0.995821 1.775463,1.212537 1.847642,0.303284 2.569373,0.909254 2.569373,1.992239 0,1.168956 -0.779463,1.977314 -2.598209,1.977314 z"
     fill="#160f26"
     id="path29"
     style="stroke-width:0.597015" /><path
     d="m 66.454326,68.772528 h 0.115224 c 0.361194,-1.154627 1.284776,-1.890746 2.482985,-1.890746 1.573135,0 2.266269,1.010746 2.266269,2.482985 v 4.38806 h -0.995821 v -4.171941 c 0,-1.010149 -0.404179,-1.789851 -1.616716,-1.789851 -1.342687,0 -2.237612,0.837612 -2.237612,2.093135 v 3.868657 h -0.996 v -6.712239 h 0.981671 z"
     fill="#160f26"
     id="path30"
     style="stroke-width:0.597015" /><path
     d="m 61.043221,73.911633 c -2.078567,0 -3.32,-1.299105 -3.32,-3.493135 0,-2.223284 1.313612,-3.536716 3.291164,-3.536716 1.977553,0 2.988001,1.241194 2.988001,3.088955 0,0.173134 0,0.447761 -0.0289,0.707463 h -5.254269 c 0.08663,1.515821 0.880537,2.381493 2.324,2.381493 1.328,0 1.789911,-0.692538 2.035344,-1.544478 l 0.880477,0.259701 c -0.332,1.328359 -1.226925,2.136717 -2.915821,2.136717 z m -2.309552,-3.998209 h 4.344896 c -0.05773,-1.400598 -0.678448,-2.208956 -2.093075,-2.208956 -1.313552,0 -2.107463,0.751045 -2.251821,2.208956 z"
     fill="#160f26"
     id="path31"
     style="stroke-width:0.597015" /><path
     d="m 56.710564,70.40417 c 0,2.266269 -0.996,3.507463 -2.641552,3.507463 -1.371284,0 -2.237374,-0.837015 -2.554926,-1.992239 h -0.07218 v 4.041791 h -0.996 v -8.920597 h 0.996 v 1.804179 h 0.08657 c 0.332,-1.140299 1.097075,-1.962985 2.468359,-1.962985 1.761074,0 2.713731,1.256119 2.713731,3.522388 z m -5.268657,0.259701 c 0,1.400001 0.86609,2.367165 2.208478,2.367165 1.385731,0 2.064179,-0.866269 2.064179,-2.626866 0,-1.775523 -0.664,-2.613135 -2.064179,-2.613135 -1.342388,0 -2.208478,0.909851 -2.208478,2.367762 z"
     fill="#160f26"
     id="path32"
     style="stroke-width:0.597015" /><path
     d="m 45.663996,73.911633 c -2.121911,0 -3.319941,-1.357015 -3.319941,-3.536717 0,-2.19403 1.327941,-3.493134 3.319941,-3.493134 1.992,0 3.32,1.299104 3.32,3.493134 0,2.179702 -1.212477,3.536717 -3.32,3.536717 z m 0,-6.149254 c -1.501194,0 -2.324,0.981492 -2.324,2.598209 0,1.616716 0.750627,2.670448 2.309612,2.670448 1.558925,0 2.338388,-1.053732 2.338388,-2.670448 0,-1.616717 -0.822746,-2.598209 -2.324,-2.598209 z"
     fill="#160f26"
     id="path33"
     style="stroke-width:0.597015" /></svg>
